<svg width="354" height="140" viewBox="0 0 354 140" fill="none" xmlns="http://www.w3.org/2000/svg">
<g style="mix-blend-mode:multiply">
<ellipse cx="2.63902" cy="136.827" rx="2.29319" ry="2.63902" transform="rotate(-90 2.63902 136.827)" fill="#E8E6EA"/>
<ellipse cx="2.63902" cy="103.193" rx="2.29319" ry="2.63902" transform="rotate(-90 2.63902 103.193)" fill="#E8E6EA"/>
<ellipse cx="2.63902" cy="69.5601" rx="2.29319" ry="2.63902" transform="rotate(-90 2.63902 69.5601)" fill="#E8E6EA"/>
<ellipse cx="2.63902" cy="35.9265" rx="2.29319" ry="2.63902" transform="rotate(-90 2.63902 35.9265)" fill="#E8E6EA"/>
<ellipse cx="2.63902" cy="2.29299" rx="2.29319" ry="2.63902" transform="rotate(-90 2.63902 2.29299)" fill="#E8E6EA"/>
<ellipse cx="41.3441" cy="136.827" rx="2.29319" ry="2.63902" transform="rotate(-90 41.3441 136.827)" fill="#E8E6EA"/>
<ellipse cx="41.3441" cy="103.193" rx="2.29319" ry="2.63902" transform="rotate(-90 41.3441 103.193)" fill="#E8E6EA"/>
<ellipse cx="41.3441" cy="69.5601" rx="2.29319" ry="2.63902" transform="rotate(-90 41.3441 69.5601)" fill="#E8E6EA"/>
<ellipse cx="41.3441" cy="35.9265" rx="2.29319" ry="2.63902" transform="rotate(-90 41.3441 35.9265)" fill="#E8E6EA"/>
<ellipse cx="41.3441" cy="2.29299" rx="2.29319" ry="2.63902" transform="rotate(-90 41.3441 2.29299)" fill="#E8E6EA"/>
<ellipse cx="80.0511" cy="136.827" rx="2.29319" ry="2.63902" transform="rotate(-90 80.0511 136.827)" fill="#E8E6EA"/>
<ellipse cx="80.0492" cy="103.193" rx="2.29319" ry="2.63902" transform="rotate(-90 80.0492 103.193)" fill="#E8E6EA"/>
<ellipse cx="80.0492" cy="69.5601" rx="2.29319" ry="2.63902" transform="rotate(-90 80.0492 69.5601)" fill="#E8E6EA"/>
<ellipse cx="80.0511" cy="35.9265" rx="2.29319" ry="2.63902" transform="rotate(-90 80.0511 35.9265)" fill="#E8E6EA"/>
<ellipse cx="80.0511" cy="2.29299" rx="2.29319" ry="2.63902" transform="rotate(-90 80.0511 2.29299)" fill="#E8E6EA"/>
<ellipse cx="118.756" cy="136.827" rx="2.29319" ry="2.63902" transform="rotate(-90 118.756 136.827)" fill="#E8E6EA"/>
<ellipse cx="118.756" cy="103.193" rx="2.29319" ry="2.63902" transform="rotate(-90 118.756 103.193)" fill="#E8E6EA"/>
<ellipse cx="118.756" cy="69.5601" rx="2.29319" ry="2.63902" transform="rotate(-90 118.756 69.5601)" fill="#E8E6EA"/>
<ellipse cx="118.756" cy="35.9265" rx="2.29319" ry="2.63902" transform="rotate(-90 118.756 35.9265)" fill="#E8E6EA"/>
<ellipse cx="118.756" cy="2.29299" rx="2.29319" ry="2.63902" transform="rotate(-90 118.756 2.29299)" fill="#E8E6EA"/>
<ellipse cx="157.461" cy="136.827" rx="2.29319" ry="2.63902" transform="rotate(-90 157.461 136.827)" fill="#E8E6EA"/>
<ellipse cx="157.461" cy="103.193" rx="2.29319" ry="2.63902" transform="rotate(-90 157.461 103.193)" fill="#E8E6EA"/>
<ellipse cx="157.461" cy="69.5601" rx="2.29319" ry="2.63902" transform="rotate(-90 157.461 69.5601)" fill="#E8E6EA"/>
<ellipse cx="157.461" cy="35.9265" rx="2.29319" ry="2.63902" transform="rotate(-90 157.461 35.9265)" fill="#E8E6EA"/>
<ellipse cx="157.461" cy="2.29324" rx="2.29319" ry="2.63902" transform="rotate(-90 157.461 2.29324)" fill="#E8E6EA"/>
<ellipse cx="196.166" cy="136.827" rx="2.29319" ry="2.63902" transform="rotate(-90 196.166 136.827)" fill="#E8E6EA"/>
<ellipse cx="196.166" cy="103.193" rx="2.29319" ry="2.63902" transform="rotate(-90 196.166 103.193)" fill="#E8E6EA"/>
<ellipse cx="196.166" cy="69.5601" rx="2.29319" ry="2.63902" transform="rotate(-90 196.166 69.5601)" fill="#E8E6EA"/>
<ellipse cx="196.166" cy="35.9265" rx="2.29319" ry="2.63902" transform="rotate(-90 196.166 35.9265)" fill="#E8E6EA"/>
<ellipse cx="196.166" cy="2.29324" rx="2.29319" ry="2.63902" transform="rotate(-90 196.166 2.29324)" fill="#E8E6EA"/>
<ellipse cx="234.871" cy="136.827" rx="2.29319" ry="2.63902" transform="rotate(-90 234.871 136.827)" fill="#E8E6EA"/>
<ellipse cx="234.871" cy="103.193" rx="2.29319" ry="2.63902" transform="rotate(-90 234.871 103.193)" fill="#E8E6EA"/>
<ellipse cx="234.871" cy="69.5601" rx="2.29319" ry="2.63902" transform="rotate(-90 234.871 69.5601)" fill="#E8E6EA"/>
<ellipse cx="234.871" cy="35.9265" rx="2.29319" ry="2.63902" transform="rotate(-90 234.871 35.9265)" fill="#E8E6EA"/>
<ellipse cx="234.871" cy="2.29324" rx="2.29319" ry="2.63902" transform="rotate(-90 234.871 2.29324)" fill="#E8E6EA"/>
<ellipse cx="273.577" cy="136.827" rx="2.29319" ry="2.63902" transform="rotate(-90 273.577 136.827)" fill="#E8E6EA"/>
<ellipse cx="273.577" cy="103.193" rx="2.29319" ry="2.63902" transform="rotate(-90 273.577 103.193)" fill="#E8E6EA"/>
<ellipse cx="273.577" cy="69.5601" rx="2.29319" ry="2.63902" transform="rotate(-90 273.577 69.5601)" fill="#E8E6EA"/>
<ellipse cx="273.577" cy="35.9265" rx="2.29319" ry="2.63902" transform="rotate(-90 273.577 35.9265)" fill="#E8E6EA"/>
<ellipse cx="273.577" cy="2.29324" rx="2.29319" ry="2.63902" transform="rotate(-90 273.577 2.29324)" fill="#E8E6EA"/>
<ellipse cx="312.284" cy="136.827" rx="2.29319" ry="2.63902" transform="rotate(-90 312.284 136.827)" fill="#E8E6EA"/>
<ellipse cx="312.282" cy="103.193" rx="2.29319" ry="2.63902" transform="rotate(-90 312.282 103.193)" fill="#E8E6EA"/>
<ellipse cx="312.282" cy="69.5601" rx="2.29319" ry="2.63902" transform="rotate(-90 312.282 69.5601)" fill="#E8E6EA"/>
<ellipse cx="312.282" cy="35.9265" rx="2.29319" ry="2.63902" transform="rotate(-90 312.282 35.9265)" fill="#E8E6EA"/>
<ellipse cx="312.282" cy="2.29324" rx="2.29319" ry="2.63902" transform="rotate(-90 312.282 2.29324)" fill="#E8E6EA"/>
<ellipse cx="350.989" cy="136.827" rx="2.29319" ry="2.63902" transform="rotate(-90 350.989 136.827)" fill="#E8E6EA"/>
<ellipse cx="350.989" cy="103.193" rx="2.29319" ry="2.63902" transform="rotate(-90 350.989 103.193)" fill="#E8E6EA"/>
<ellipse cx="350.989" cy="69.5601" rx="2.29319" ry="2.63902" transform="rotate(-90 350.989 69.5601)" fill="#E8E6EA"/>
<ellipse cx="350.989" cy="35.9265" rx="2.29319" ry="2.63902" transform="rotate(-90 350.989 35.9265)" fill="#E8E6EA"/>
<ellipse cx="350.989" cy="2.29299" rx="2.29319" ry="2.63902" transform="rotate(-90 350.989 2.29299)" fill="#E8E6EA"/>
</g>
</svg>
