<svg width="24" height="24" viewBox="0 0 24 24" fill="none" xmlns="http://www.w3.org/2000/svg">
<path d="M8 2V5" stroke="url(#paint0_linear_1928_1624)" stroke-width="1.5" stroke-miterlimit="10" stroke-linecap="round" stroke-linejoin="round"/>
<path d="M16 2V5" stroke="url(#paint1_linear_1928_1624)" stroke-width="1.5" stroke-miterlimit="10" stroke-linecap="round" stroke-linejoin="round"/>
<path opacity="0.4" d="M3.5 9.09009H20.5" stroke="url(#paint2_linear_1928_1624)" stroke-width="1.5" stroke-miterlimit="10" stroke-linecap="round" stroke-linejoin="round"/>
<path d="M21 8.5V17C21 20 19.5 22 16 22H8C4.5 22 3 20 3 17V8.5C3 5.5 4.5 3.5 8 3.5H16C19.5 3.5 21 5.5 21 8.5Z" stroke="url(#paint3_linear_1928_1624)" stroke-width="1.5" stroke-miterlimit="10" stroke-linecap="round" stroke-linejoin="round"/>
<path opacity="0.4" d="M15.6937 13.7H15.7027" stroke="url(#paint4_linear_1928_1624)" stroke-width="2" stroke-linecap="round" stroke-linejoin="round"/>
<path opacity="0.4" d="M15.6937 16.7H15.7027" stroke="url(#paint5_linear_1928_1624)" stroke-width="2" stroke-linecap="round" stroke-linejoin="round"/>
<path opacity="0.4" d="M11.9945 13.7H12.0035" stroke="url(#paint6_linear_1928_1624)" stroke-width="2" stroke-linecap="round" stroke-linejoin="round"/>
<path opacity="0.4" d="M11.9945 16.7H12.0035" stroke="url(#paint7_linear_1928_1624)" stroke-width="2" stroke-linecap="round" stroke-linejoin="round"/>
<path opacity="0.4" d="M8.29529 13.7H8.30427" stroke="url(#paint8_linear_1928_1624)" stroke-width="2" stroke-linecap="round" stroke-linejoin="round"/>
<path opacity="0.4" d="M8.29492 16.7H8.3039" stroke="url(#paint9_linear_1928_1624)" stroke-width="2" stroke-linecap="round" stroke-linejoin="round"/>
<defs>
<linearGradient id="paint0_linear_1928_1624" x1="8.5" y1="2" x2="8.5" y2="5" gradientUnits="userSpaceOnUse">
<stop stop-color="#105363"/>
<stop offset="1" stop-color="#27849A"/>
</linearGradient>
<linearGradient id="paint1_linear_1928_1624" x1="16.5" y1="2" x2="16.5" y2="5" gradientUnits="userSpaceOnUse">
<stop stop-color="#105363"/>
<stop offset="1" stop-color="#27849A"/>
</linearGradient>
<linearGradient id="paint2_linear_1928_1624" x1="12" y1="9.09009" x2="12" y2="10.0901" gradientUnits="userSpaceOnUse">
<stop stop-color="#105363"/>
<stop offset="1" stop-color="#27849A"/>
</linearGradient>
<linearGradient id="paint3_linear_1928_1624" x1="12" y1="3.5" x2="12" y2="22" gradientUnits="userSpaceOnUse">
<stop stop-color="#105363"/>
<stop offset="1" stop-color="#27849A"/>
</linearGradient>
<linearGradient id="paint4_linear_1928_1624" x1="15.6982" y1="13.2" x2="15.6982" y2="14.2" gradientUnits="userSpaceOnUse">
<stop stop-color="#105363"/>
<stop offset="1" stop-color="#27849A"/>
</linearGradient>
<linearGradient id="paint5_linear_1928_1624" x1="15.6982" y1="16.2" x2="15.6982" y2="17.2" gradientUnits="userSpaceOnUse">
<stop stop-color="#105363"/>
<stop offset="1" stop-color="#27849A"/>
</linearGradient>
<linearGradient id="paint6_linear_1928_1624" x1="11.999" y1="13.2" x2="11.999" y2="14.2" gradientUnits="userSpaceOnUse">
<stop stop-color="#105363"/>
<stop offset="1" stop-color="#27849A"/>
</linearGradient>
<linearGradient id="paint7_linear_1928_1624" x1="11.999" y1="16.2" x2="11.999" y2="17.2" gradientUnits="userSpaceOnUse">
<stop stop-color="#105363"/>
<stop offset="1" stop-color="#27849A"/>
</linearGradient>
<linearGradient id="paint8_linear_1928_1624" x1="8.29978" y1="13.2" x2="8.29978" y2="14.2" gradientUnits="userSpaceOnUse">
<stop stop-color="#105363"/>
<stop offset="1" stop-color="#27849A"/>
</linearGradient>
<linearGradient id="paint9_linear_1928_1624" x1="8.29941" y1="16.7" x2="8.29941" y2="17.7" gradientUnits="userSpaceOnUse">
<stop stop-color="#105363"/>
<stop offset="1" stop-color="#27849A"/>
</linearGradient>
</defs>
</svg>
