<svg width="235" height="153" viewBox="0 0 235 153" fill="none" xmlns="http://www.w3.org/2000/svg">
<g style="mix-blend-mode:multiply">
<ellipse cx="232.548" cy="3.23043" rx="2.91223" ry="2.23349" transform="rotate(89.7309 232.548 3.23043)" fill="#E8E6EA"/>
<ellipse cx="232.755" cy="47.0737" rx="2.91223" ry="2.23349" transform="rotate(89.7309 232.755 47.0737)" fill="#E8E6EA"/>
<ellipse cx="232.96" cy="90.917" rx="2.91223" ry="2.23349" transform="rotate(89.7309 232.96 90.917)" fill="#E8E6EA"/>
<ellipse cx="233.167" cy="134.758" rx="2.91223" ry="2.23349" transform="rotate(89.7309 233.167 134.758)" fill="#E8E6EA"/>
<ellipse cx="199.792" cy="3.38424" rx="2.91223" ry="2.23349" transform="rotate(89.7309 199.792 3.38424)" fill="#E8E6EA"/>
<ellipse cx="199.997" cy="47.2275" rx="2.91223" ry="2.23349" transform="rotate(89.7309 199.997 47.2275)" fill="#E8E6EA"/>
<ellipse cx="200.202" cy="91.0686" rx="2.91223" ry="2.23349" transform="rotate(89.7309 200.202 91.0686)" fill="#E8E6EA"/>
<ellipse cx="200.409" cy="134.912" rx="2.91223" ry="2.23349" transform="rotate(89.7309 200.409 134.912)" fill="#E8E6EA"/>
<ellipse cx="167.034" cy="3.53817" rx="2.91223" ry="2.23349" transform="rotate(89.7309 167.034 3.53817)" fill="#E8E6EA"/>
<ellipse cx="167.239" cy="47.3814" rx="2.91223" ry="2.23349" transform="rotate(89.7309 167.239 47.3814)" fill="#E8E6EA"/>
<ellipse cx="167.446" cy="91.2246" rx="2.91223" ry="2.23349" transform="rotate(89.7309 167.446 91.2246)" fill="#E8E6EA"/>
<ellipse cx="167.651" cy="135.066" rx="2.91223" ry="2.23349" transform="rotate(89.7309 167.651 135.066)" fill="#E8E6EA"/>
<ellipse cx="134.276" cy="3.69198" rx="2.91223" ry="2.23349" transform="rotate(89.7309 134.276 3.69198)" fill="#E8E6EA"/>
<ellipse cx="134.481" cy="47.533" rx="2.91223" ry="2.23349" transform="rotate(89.7309 134.481 47.533)" fill="#E8E6EA"/>
<ellipse cx="134.688" cy="91.3763" rx="2.91223" ry="2.23349" transform="rotate(89.7309 134.688 91.3763)" fill="#E8E6EA"/>
<ellipse cx="134.893" cy="135.22" rx="2.91223" ry="2.23349" transform="rotate(89.7309 134.893 135.22)" fill="#E8E6EA"/>
<ellipse cx="101.518" cy="3.84578" rx="2.91223" ry="2.23349" transform="rotate(89.7309 101.518 3.84578)" fill="#E8E6EA"/>
<ellipse cx="101.724" cy="47.687" rx="2.91223" ry="2.23349" transform="rotate(89.7309 101.724 47.687)" fill="#E8E6EA"/>
<ellipse cx="101.931" cy="91.5323" rx="2.91223" ry="2.23349" transform="rotate(89.7309 101.931 91.5323)" fill="#E8E6EA"/>
<ellipse cx="102.136" cy="135.373" rx="2.91223" ry="2.23349" transform="rotate(89.7309 102.136 135.373)" fill="#E8E6EA"/>
<ellipse cx="68.7607" cy="3.99972" rx="2.91223" ry="2.23349" transform="rotate(89.7309 68.7607 3.99972)" fill="#E8E6EA"/>
<ellipse cx="68.9677" cy="47.8408" rx="2.91223" ry="2.23349" transform="rotate(89.7309 68.9677 47.8408)" fill="#E8E6EA"/>
<ellipse cx="69.1728" cy="91.684" rx="2.91223" ry="2.23349" transform="rotate(89.7309 69.1728 91.684)" fill="#E8E6EA"/>
<ellipse cx="69.3798" cy="135.527" rx="2.91223" ry="2.23349" transform="rotate(89.7309 69.3798 135.527)" fill="#E8E6EA"/>
<ellipse cx="36.0029" cy="4.15352" rx="2.91223" ry="2.23349" transform="rotate(89.7309 36.0029 4.15352)" fill="#E8E6EA"/>
<ellipse cx="36.2099" cy="47.9946" rx="2.91223" ry="2.23349" transform="rotate(89.7309 36.2099 47.9946)" fill="#E8E6EA"/>
<ellipse cx="36.415" cy="91.84" rx="2.91223" ry="2.23349" transform="rotate(89.7309 36.415 91.84)" fill="#E8E6EA"/>
<ellipse cx="36.622" cy="135.681" rx="2.91223" ry="2.23349" transform="rotate(89.7309 36.622 135.681)" fill="#E8E6EA"/>
<ellipse cx="3.24701" cy="4.30745" rx="2.91223" ry="2.23349" transform="rotate(89.7309 3.24701 4.30745)" fill="#E8E6EA"/>
<ellipse cx="3.45209" cy="48.1507" rx="2.91223" ry="2.23349" transform="rotate(89.7309 3.45209 48.1507)" fill="#E8E6EA"/>
<ellipse cx="3.65912" cy="91.994" rx="2.91223" ry="2.23349" transform="rotate(89.7309 3.65912 91.994)" fill="#E8E6EA"/>
<ellipse cx="3.8642" cy="135.835" rx="2.91223" ry="2.23349" transform="rotate(89.7309 3.8642 135.835)" fill="#E8E6EA"/>
</g>
</svg>
