<svg width="22" height="22" viewBox="0 0 22 22" fill="none" xmlns="http://www.w3.org/2000/svg">
<g clip-path="url(#clip0_667_6340)">
<path d="M21.7862 11.2527C21.7862 10.505 21.7256 9.7532 21.5963 9.01758H11.2207V13.2535H17.1623C16.9157 14.6196 16.1235 15.8282 14.9635 16.5961V19.3446H18.5082C20.5898 17.4287 21.7862 14.5994 21.7862 11.2527Z" fill="#4285F4"/>
<path d="M11.2205 22.0015C14.1872 22.0015 16.6892 21.0274 18.5121 19.346L14.9673 16.5975C13.9811 17.2685 12.7079 17.6484 11.2245 17.6484C8.3548 17.6484 5.92158 15.7124 5.04853 13.1094H1.39062V15.9427C3.25798 19.6572 7.0614 22.0015 11.2205 22.0015Z" fill="#34A853"/>
<path d="M5.0447 13.1095C4.58392 11.7433 4.58392 10.264 5.0447 8.89782V6.06445H1.39083C-0.169339 9.17267 -0.169339 12.8346 1.39083 15.9428L5.0447 13.1095Z" fill="#FBBC04"/>
<path d="M11.2205 4.35386C12.7888 4.3296 14.3045 4.91972 15.4402 6.00295L18.5808 2.8624C16.5922 0.995046 13.9528 -0.0315938 11.2205 0.000741277C7.0614 0.000741277 3.25798 2.34504 1.39062 6.06357L5.04449 8.89694C5.9135 6.28992 8.35076 4.35386 11.2205 4.35386Z" fill="#EA4335"/>
</g>
<defs>
<clipPath id="clip0_667_6340">
<rect width="22" height="22" fill="white"/>
</clipPath>
</defs>
</svg>
