<svg width="24" height="24" viewBox="0 0 24 24" fill="none" xmlns="http://www.w3.org/2000/svg">
<g id="icons8-instagram 1">
<path id="Vector" d="M16.3195 1.43945H7.67945C4.23785 1.43945 1.43945 4.23785 1.43945 7.67945V16.3195C1.43945 19.7611 4.23785 22.5595 7.67945 22.5595H16.3195C19.7611 22.5595 22.5595 19.7611 22.5595 16.3195V7.67945C22.5595 4.23785 19.7611 1.43945 16.3195 1.43945ZM11.9995 17.2795C9.08585 17.2795 6.71945 14.9131 6.71945 11.9995C6.71945 9.08585 9.08585 6.71945 11.9995 6.71945C14.9131 6.71945 17.2795 9.08585 17.2795 11.9995C17.2795 14.9131 14.9131 17.2795 11.9995 17.2795ZM17.7595 7.19945C17.2315 7.19945 16.7995 6.76745 16.7995 6.23945C16.7995 5.71145 17.2315 5.27945 17.7595 5.27945C18.2875 5.27945 18.7195 5.71145 18.7195 6.23945C18.7195 6.76745 18.2875 7.19945 17.7595 7.19945Z" fill="url(#paint0_linear_701_7378)"/>
<path id="Vector_2" d="M16.3197 11.9997C16.3197 14.3805 14.3805 16.3197 11.9997 16.3197C9.61889 16.3197 7.67969 14.3805 7.67969 11.9997C7.67969 9.61889 9.61889 7.67969 11.9997 7.67969C14.3805 7.67969 16.3197 9.61889 16.3197 11.9997Z" fill="url(#paint1_linear_701_7378)"/>
</g>
<defs>
<linearGradient id="paint0_linear_701_7378" x1="11.9995" y1="1.43945" x2="11.9995" y2="22.5595" gradientUnits="userSpaceOnUse">
<stop stop-color="#105363"/>
<stop offset="1" stop-color="#27849A"/>
</linearGradient>
<linearGradient id="paint1_linear_701_7378" x1="11.9997" y1="7.67969" x2="11.9997" y2="16.3197" gradientUnits="userSpaceOnUse">
<stop stop-color="#105363"/>
<stop offset="1" stop-color="#27849A"/>
</linearGradient>
</defs>
</svg>
