<svg width="259" height="195" viewBox="0 0 259 195" fill="none" xmlns="http://www.w3.org/2000/svg">
<path d="M62.3871 152.983C67.1303 133.347 55.0574 113.584 35.4216 108.841C15.7858 104.098 -3.97722 116.171 -8.72037 135.807C-13.4635 155.442 -1.39063 175.205 18.2452 179.949C37.881 184.692 57.644 172.619 62.3871 152.983Z" fill="#DBEDEA"/>
<path d="M177.181 72.0549C178.921 63.2438 173.188 54.6906 164.377 52.9508C155.566 51.211 147.013 56.9433 145.273 65.7544C143.533 74.5654 149.266 83.1185 158.077 84.8584C166.888 86.5982 175.441 80.8659 177.181 72.0549Z" fill="#E2FFFA"/>
<path d="M88.0228 78.7632C90.4501 70.1163 85.4081 61.1388 76.7611 58.7116C68.1142 56.2843 59.1367 61.3263 56.7094 69.9732C54.2822 78.6202 59.3242 87.5976 67.9711 90.0249C76.6181 92.4522 85.5955 87.4102 88.0228 78.7632Z" fill="#E2F7F3"/>
<path d="M167.081 129.626C167.082 131.39 166.56 133.115 165.581 134.583C164.602 136.05 163.21 137.194 161.581 137.87C159.952 138.546 158.158 138.724 156.428 138.381C154.698 138.037 153.108 137.189 151.86 135.942C150.613 134.695 149.763 133.106 149.418 131.376C149.073 129.646 149.249 127.853 149.924 126.223C150.599 124.593 151.742 123.2 153.208 122.22C154.675 121.24 156.399 120.716 158.163 120.716C160.527 120.716 162.794 121.655 164.466 123.326C166.138 124.996 167.079 127.263 167.081 129.626Z" fill="#E2F7F3"/>
<path d="M229.601 40.6228C230.392 35.7659 227.096 31.1874 222.239 30.3964C217.382 29.6054 212.803 32.9015 212.012 37.7584C211.221 42.6152 214.517 47.1937 219.374 47.9847C224.231 48.7757 228.81 45.4797 229.601 40.6228Z" fill="#E2F7F3"/>
<path d="M171.471 49.7876C172.958 49.7876 174.163 48.5823 174.163 47.0956C174.163 45.6088 172.958 44.4036 171.471 44.4036C169.985 44.4036 168.779 45.6088 168.779 47.0956C168.779 48.5823 169.985 49.7876 171.471 49.7876Z" fill="#E2F7F3"/>
<path d="M193.731 18.5514C193.732 19.0859 193.575 19.6088 193.279 20.0538C192.983 20.4988 192.561 20.846 192.068 21.0512C191.574 21.2564 191.031 21.3104 190.507 21.2065C189.982 21.1026 189.501 20.8454 189.123 20.4674C188.745 20.0895 188.487 19.6078 188.384 19.0835C188.28 18.5592 188.334 18.0159 188.539 17.5224C188.744 17.0288 189.091 16.6073 189.536 16.3113C189.981 16.0152 190.504 15.8579 191.039 15.8594C191.753 15.8594 192.437 16.143 192.942 16.6479C193.447 17.1527 193.731 17.8374 193.731 18.5514Z" fill="#E2F7F3"/>
<path d="M246.299 137.79C246.299 138.324 246.141 138.847 245.844 139.291C245.547 139.735 245.125 140.081 244.631 140.285C244.137 140.489 243.594 140.542 243.07 140.437C242.547 140.332 242.066 140.075 241.688 139.696C241.311 139.318 241.055 138.837 240.951 138.312C240.848 137.788 240.903 137.245 241.108 136.752C241.313 136.259 241.661 135.838 242.105 135.542C242.55 135.247 243.073 135.09 243.607 135.091C243.961 135.091 244.312 135.161 244.639 135.297C244.966 135.432 245.263 135.631 245.513 135.882C245.763 136.133 245.961 136.43 246.096 136.758C246.231 137.085 246.3 137.436 246.299 137.79Z" fill="#E2F7F3"/>
<path d="M41.1213 66.1958C41.1228 66.7303 40.9655 67.2532 40.6694 67.6982C40.3734 68.1432 39.9519 68.4904 39.4583 68.6956C38.9648 68.9008 38.4215 68.9549 37.8972 68.8509C37.3729 68.747 36.8912 68.4898 36.5133 68.1118C36.1353 67.7339 35.8781 67.2522 35.7742 66.7279C35.6702 66.2036 35.7243 65.6603 35.9295 65.1668C36.1347 64.6732 36.4819 64.2517 36.9269 63.9557C37.3719 63.6596 37.8948 63.5023 38.4293 63.5038C38.7828 63.5038 39.1329 63.5734 39.4595 63.7087C39.7861 63.844 40.0829 64.0423 40.3328 64.2923C40.5828 64.5422 40.7811 64.839 40.9164 65.1656C41.0517 65.4922 41.1213 65.8423 41.1213 66.1958Z" fill="#E2F7F3"/>
<path d="M66.3875 106.093C66.3875 107.056 66.1022 107.996 65.5677 108.796C65.0331 109.596 64.2734 110.22 63.3845 110.588C62.4956 110.956 61.5175 111.052 60.5738 110.865C59.6302 110.677 58.7634 110.214 58.083 109.533C57.4027 108.853 56.9394 107.986 56.7517 107.042C56.564 106.099 56.6603 105.121 57.0285 104.232C57.3967 103.343 58.0202 102.583 58.8202 102.049C59.6202 101.514 60.5607 101.229 61.5229 101.229C62.8131 101.229 64.0504 101.741 64.9627 102.654C65.875 103.566 66.3875 104.803 66.3875 106.093Z" fill="#E2F7F3"/>
<path d="M48.6771 55.53C51.3638 55.53 53.5418 53.352 53.5418 50.6653C53.5418 47.9786 51.3638 45.8007 48.6771 45.8007C45.9905 45.8007 43.8125 47.9786 43.8125 50.6653C43.8125 53.352 45.9905 55.53 48.6771 55.53Z" fill="#E2F7F3"/>
<path d="M222.49 130.095C225.176 130.095 227.354 127.917 227.354 125.23C227.354 122.543 225.176 120.365 222.49 120.365C219.803 120.365 217.625 122.543 217.625 125.23C217.625 127.917 219.803 130.095 222.49 130.095Z" fill="#E2F7F3"/>
<path d="M163.908 14.9524C166.594 14.9524 168.772 12.7745 168.772 10.0878C168.772 7.40112 166.594 5.22314 163.908 5.22314C161.221 5.22314 159.043 7.40112 159.043 10.0878C159.043 12.7745 161.221 14.9524 163.908 14.9524Z" fill="#E2F7F3"/>
<path d="M174.923 128.975C158.032 128.975 141.833 135.685 129.89 147.629C117.946 159.572 111.236 175.771 111.236 192.662H238.61C238.61 175.771 231.9 159.572 219.956 147.629C208.013 135.685 191.814 128.975 174.923 128.975Z" fill="#E2F7F3"/>
<path d="M239.693 192.662H-26.773C-27.0973 192.646 -27.4208 192.708 -27.7162 192.843C-28.0115 192.978 -28.2701 193.182 -28.4702 193.438C-29.5528 195.01 -28.3239 196.649 -26.6633 196.649H239.612C240.091 196.673 240.566 196.545 240.967 196.282C241.368 196.019 241.675 195.635 241.844 195.186C241.918 194.872 241.917 194.544 241.842 194.23C241.766 193.916 241.617 193.625 241.408 193.379C241.198 193.133 240.934 192.94 240.636 192.816C240.338 192.691 240.015 192.638 239.693 192.662Z" fill="#E2F7F3"/>
<path d="M150.36 32.2897H146.322H142.284L138.246 164.798H154.405L150.36 32.2897Z" fill="#0B3A6B"/>
<path d="M142.21 28.5295L102.913 32.3115C100.891 32.4392 98.8886 32.7901 96.9435 33.3576L89.7599 35.4498C88.9845 35.6765 88.1579 35.2376 88.1579 34.6085C88.1996 34.3353 88.3456 34.0889 88.5653 33.9211C88.7849 33.7533 89.061 33.6772 89.3356 33.7087H90.7987V32.509H88.2603C86.2925 32.509 84.7051 33.7234 84.7051 35.223C84.7051 36.6861 86.2925 37.9296 88.2603 37.9296H142.818L142.21 28.5295Z" fill="#247AAE"/>
<path d="M88.2246 34.8865C88.1898 34.9599 88.1699 35.0395 88.166 35.1206C88.166 35.7497 88.9926 36.1813 89.7681 35.9619L96.9517 33.8624C98.8976 33.2983 100.899 32.9476 102.921 32.8163L142.211 29.0343L142.782 37.9296H142.818L142.211 28.5295L102.914 32.3115C100.892 32.4404 98.8905 32.7887 96.9443 33.3503L89.7607 35.4498C89.479 35.5471 89.1723 35.5442 88.8924 35.4415C88.6125 35.3389 88.3766 35.1429 88.2246 34.8865Z" fill="#44ACD5"/>
<path d="M88.2681 33.0211H90.8065V32.509H88.2681C86.3003 32.509 84.7129 33.7234 84.7129 35.223C84.7129 35.3108 84.7129 35.3912 84.7129 35.4717C84.9177 34.0964 86.4174 33.0211 88.2681 33.0211Z" fill="#44ACD5"/>
<path d="M142.4 31.4335L91.4713 35.9982C91.1962 35.9883 90.9272 36.0809 90.7164 36.2579C90.5056 36.4349 90.3679 36.6838 90.3301 36.9565C90.3737 37.2525 90.5311 37.5198 90.7689 37.7016C91.0066 37.8833 91.3059 37.965 91.6029 37.9294H142.81L142.4 31.4335Z" fill="#0B3A6B"/>
<path d="M61.1348 93.233L89.4521 35.2375L116.789 93.233" stroke="#0B3A6B" stroke-linecap="round" stroke-linejoin="round"/>
<path d="M88.962 120.716C92.8788 120.721 96.7582 119.954 100.378 118.458C103.998 116.963 107.288 114.768 110.059 112C112.83 109.233 115.029 105.946 116.529 102.327C118.029 98.7092 118.801 94.8308 118.801 90.9141H59.1523C59.1543 98.8188 62.2958 106.399 67.886 111.988C73.4762 117.577 81.0573 120.716 88.962 120.716Z" fill="#FCAB26"/>
<path d="M104.282 93.6501C103.25 106.818 94.8304 117.556 83.8867 120.124C85.5502 120.518 87.254 120.717 88.9635 120.717C102.299 120.717 113.25 108.822 114.435 93.6501H104.282Z" fill="#FC9700"/>
<path d="M67.0383 93.6501H63.2051C64.3902 108.822 75.3411 120.717 88.6768 120.717C89.3206 120.717 89.9497 120.717 90.5788 120.622C78.1502 119.553 68.1721 108.098 67.0383 93.6501Z" fill="#FFD279"/>
<path d="M59.1962 92.4283H118.728C118.728 91.9236 118.764 91.4188 118.764 90.9141H59.1523C59.1523 91.4213 59.167 91.926 59.1962 92.4283Z" fill="#FFD279"/>
<path d="M150.431 28.5295L189.758 32.3115C191.781 32.4386 193.783 32.7894 195.728 33.3576L202.918 35.4498C203.694 35.6765 204.52 35.2376 204.52 34.6085C204.479 34.3353 204.333 34.0889 204.113 33.9211C203.893 33.7533 203.617 33.6772 203.343 33.7087H201.88V32.509H204.389C206.349 32.509 207.944 33.7234 207.944 35.223C207.944 36.6861 206.349 37.9296 204.389 37.9296H149.824L150.431 28.5295Z" fill="#247AAE"/>
<path d="M207.901 35.4717C207.921 35.3901 207.933 35.3068 207.937 35.223C207.937 33.7234 206.343 32.509 204.382 32.509H201.844V33.0211H204.389C206.233 33.0211 207.733 34.0964 207.901 35.4717Z" fill="#44ACD5"/>
<path d="M150.431 29.034L189.758 32.816C191.78 32.9466 193.782 33.2974 195.728 33.8621L202.918 35.9616C203.694 36.181 204.52 35.7494 204.52 35.1203C204.513 35.0397 204.493 34.9608 204.462 34.8862C204.309 35.1432 204.071 35.3395 203.79 35.4421C203.509 35.5447 203.201 35.5473 202.918 35.4495L195.691 33.3281C193.745 32.7658 191.743 32.4175 189.722 32.2893L150.431 28.5073L149.824 37.9074L150.431 29.034Z" fill="#44ACD5"/>
<path d="M150.256 31.4335L201.192 35.9982C201.466 35.9902 201.733 36.0835 201.942 36.2604C202.152 36.4373 202.288 36.6851 202.326 36.9565C202.284 37.2519 202.128 37.5192 201.892 37.7011C201.655 37.8829 201.357 37.9649 201.06 37.9294H149.854L150.256 31.4335Z" fill="#0B3A6B"/>
<path d="M231.514 93.233L203.189 35.2375L175.859 93.233" stroke="#0B3A6B" stroke-linecap="round" stroke-linejoin="round"/>
<path d="M203.658 120.716C195.754 120.716 188.173 117.577 182.584 111.988C176.995 106.398 173.855 98.8181 173.855 90.9141H233.46C233.46 98.8181 230.32 106.398 224.731 111.988C219.142 117.577 211.562 120.716 203.658 120.716Z" fill="#FCAB26"/>
<path d="M188.361 93.6501C189.4 106.818 197.812 117.556 208.763 120.124C207.1 120.518 205.396 120.717 203.687 120.717C190.351 120.717 179.4 108.822 178.215 93.6501H188.361Z" fill="#FC9700"/>
<path d="M225.603 93.6501H229.414C228.229 108.822 217.278 120.717 203.942 120.717C203.299 120.717 202.662 120.717 202.033 120.622C214.498 119.553 224.476 108.098 225.603 93.6501Z" fill="#FFD279"/>
<path d="M233.453 92.4283H173.921C173.921 91.9236 173.885 91.4188 173.885 90.9141H233.49C233.49 91.4188 233.475 91.9236 233.453 92.4283Z" fill="#FFD279"/>
<path d="M154.665 34.7243C155.76 30.1133 152.909 25.4883 148.298 24.3941C143.687 23.2998 139.062 26.1507 137.968 30.7617C136.873 35.3727 139.724 39.9977 144.335 41.0919C148.946 42.1861 153.571 39.3353 154.665 34.7243Z" fill="#FCAB26"/>
<path d="M146.321 42.5456C145.814 42.5412 145.308 42.4996 144.807 42.4212L146.321 164.798H154.368L150.652 41.5142C149.307 42.1883 147.825 42.5414 146.321 42.5456Z" fill="#247AAE"/>
<path d="M150.411 68.4415C150.4 68.1348 150.27 67.8446 150.049 67.6317C149.828 67.4189 149.533 67.3001 149.226 67.3003C149.07 67.3031 148.916 67.3369 148.772 67.3995C148.629 67.4622 148.5 67.5526 148.392 67.6654C148.284 67.7783 148.199 67.9114 148.142 68.0572C148.086 68.2029 148.059 68.3584 148.063 68.5146L149.592 151.177C149.584 151.393 149.621 151.608 149.7 151.808C149.779 152.009 149.898 152.192 150.05 152.345C150.202 152.498 150.384 152.618 150.584 152.698C150.785 152.779 150.999 152.817 151.215 152.811C151.431 152.805 151.643 152.755 151.838 152.663C152.034 152.572 152.209 152.442 152.352 152.281C152.495 152.12 152.604 151.931 152.672 151.726C152.739 151.521 152.764 151.304 152.745 151.089L150.411 68.4415Z" fill="#44ACD5"/>
<path d="M146.321 37.0737C144.797 37.0715 143.323 36.5284 142.161 35.5411C141 34.5538 140.226 33.1864 139.979 31.6824C139.912 32.0322 139.875 32.387 139.869 32.7431C139.84 33.6091 139.985 34.4722 140.296 35.2809C140.608 36.0896 141.079 36.8274 141.681 37.4504C142.283 38.0734 143.005 38.5688 143.803 38.9071C144.6 39.2455 145.458 39.4198 146.325 39.4198C147.191 39.4198 148.049 39.2455 148.847 38.9071C149.644 38.5688 150.366 38.0734 150.968 37.4504C151.571 36.8274 152.041 36.0896 152.353 35.2809C152.664 34.4722 152.81 33.6091 152.78 32.7431C152.774 32.387 152.737 32.0322 152.671 31.6824C152.421 33.1871 151.646 34.5546 150.484 35.5417C149.321 36.5289 147.846 37.0717 146.321 37.0737Z" fill="#FC9700"/>
<path d="M152.781 49.4H139.869V53.8184H152.781V49.4Z" fill="#FCAB26"/>
<path d="M152.78 49.4H149.605V53.8184H152.78V49.4Z" fill="#FFD279"/>
<path d="M152.781 49.4H139.869V50.1535H152.781V49.4Z" fill="#FFD279"/>
<path d="M143.797 50.5703H139.869V53.8183H143.797V50.5703Z" fill="#FC9700"/>
<path d="M152.781 59.8169H139.869V64.2353H152.781V59.8169Z" fill="#FCAB26"/>
<path d="M152.78 59.8169H149.605V64.2353H152.78V59.8169Z" fill="#FFD279"/>
<path d="M152.781 59.8169H139.869V60.5704H152.781V59.8169Z" fill="#FFD279"/>
<path d="M143.797 60.9873H139.869V64.2353H143.797V60.9873Z" fill="#FC9700"/>
<path d="M153.803 98.6826H138.844V105.603H153.803V98.6826Z" fill="#FCAB26"/>
<path d="M153.805 98.6826H150.125V105.603H153.805V98.6826Z" fill="#FFD279"/>
<path d="M153.803 98.6826H138.844V99.8604H153.803V98.6826Z" fill="#FFD279"/>
<path d="M143.394 100.519H138.844V105.596H143.394V100.519Z" fill="#FC9700"/>
<path d="M153.803 108.273H138.844V115.193H153.803V108.273Z" fill="#FCAB26"/>
<path d="M153.805 108.273H150.125V115.193H153.805V108.273Z" fill="#FFD279"/>
<path d="M153.803 108.273H138.844V109.451H153.803V108.273Z" fill="#FFD279"/>
<path d="M143.394 110.117H138.844V115.193H143.394V110.117Z" fill="#FC9700"/>
<path d="M172.269 173.891H146.322H120.382L114.764 180.504H146.322H177.887L172.269 173.891Z" fill="#247AAE"/>
<path d="M158.428 173.891L161.456 180.504H157.587L154.551 173.891H158.428Z" fill="#44ACD5"/>
<path d="M170.79 173.891L175.881 180.504H166.247L162.443 173.891H170.79Z" fill="#44ACD5"/>
<path d="M132.746 180.504L134.472 174.791H137.786L136.382 180.504H132.746Z" fill="#0B3A6B"/>
<path d="M119.614 174.791H133.571L131.325 180.504H114.764L119.614 174.791Z" fill="#0B3A6B"/>
<path d="M166.503 173.891H146.32H126.144L123.957 177.198H146.32H168.69L166.503 173.891Z" fill="#FCAB26"/>
<path d="M146.321 180.504H111.391V192.838H146.321H181.259V180.504H146.321Z" fill="#247AAE"/>
<path d="M160.886 183.394H158.889V192.838H160.886H162.883V183.394H160.886Z" fill="#44ACD5"/>
<path d="M134.472 180.504H132.562V192.838H134.472H136.381V180.504H134.472Z" fill="#0B3A6B"/>
<path d="M122.782 180.504H114.428V192.838H122.782H131.136V180.504H122.782Z" fill="#0B3A6B"/>
<path d="M172.028 183.394H165.635V192.838H172.028H178.429V183.394H172.028Z" fill="#44ACD5"/>
<path d="M146.322 180.504H110.975V182.94H146.322H181.669V180.504H146.322Z" fill="#FCAB26"/>
<path d="M172.62 180.504H166.248V182.516H172.62H178.999V180.504H172.62Z" fill="#FFD279"/>
<path d="M146.322 190.402H110.975V192.838H146.322H181.669V190.402H146.322Z" fill="#FCAB26"/>
<path d="M122.779 180.994H114.322V182.94H122.779H131.235V180.994H122.779Z" fill="#FC9700"/>
<path d="M128.012 190.833H121.436V192.838H128.012H134.588V190.833H128.012Z" fill="#FC9700"/>
<path d="M134.472 180.994H132.541V182.94H134.472H136.403V180.994H134.472Z" fill="#FC9700"/>
<path d="M137.105 190.833H135.598V192.838H137.105H138.612V190.833H137.105Z" fill="#FC9700"/>
<path d="M123.957 177.198H135.669L136.408 174.791H125.544L123.957 177.198Z" fill="#FC9700"/>
<path d="M136.541 177.198H139.226L139.687 174.791H137.104L136.541 177.198Z" fill="#FC9700"/>
<path d="M172.62 190.402H166.248V192.406H172.62H178.999V190.402H172.62Z" fill="#FFD279"/>
<path d="M161.068 180.504H159.078V182.516H161.068H163.058V180.504H161.068Z" fill="#FFD279"/>
<path d="M161.068 190.402H159.078V192.406H161.068H163.058V190.402H161.068Z" fill="#FFD279"/>
<path d="M146.321 164.798H129.643V173.891H146.321H163V164.798H146.321Z" fill="#247AAE"/>
<path d="M153.279 166.927H152.32V173.891H153.279H154.23V166.927H153.279Z" fill="#44ACD5"/>
<path d="M140.666 164.798H139.752V173.891H140.666H141.573V164.798H140.666Z" fill="#0B3A6B"/>
<path d="M135.084 164.798H131.09V173.891H135.084H139.071V164.798H135.084Z" fill="#0B3A6B"/>
<path d="M158.597 166.927H155.547V173.891H158.597H161.648V166.927H158.597Z" fill="#44ACD5"/>
<path d="M146.322 164.798H129.445V166.591H146.322H163.198V164.798H146.322Z" fill="#FCAB26"/>
<path d="M158.881 164.798H155.838V166.283H158.881H161.924V164.798H158.881Z" fill="#FFD279"/>
<path d="M146.322 172.099H129.445V173.891H146.322H163.198V172.099H146.322Z" fill="#FCAB26"/>
<path d="M135.085 165.156H131.047V166.59H135.085H139.123V165.156H135.085Z" fill="#FC9700"/>
<path d="M135.085 172.413H131.047V173.891H135.085H139.123V172.413H135.085Z" fill="#FC9700"/>
<path d="M140.666 165.156H139.744V166.59H140.666H141.588V165.156H140.666Z" fill="#FC9700"/>
<path d="M140.666 172.413H139.744V173.891H140.666H141.588V172.413H140.666Z" fill="#FC9700"/>
<path d="M158.881 172.099H155.838V173.577H158.881H161.924V172.099H158.881Z" fill="#FFD279"/>
<path d="M153.367 164.798H152.416V166.283H153.367H154.318V164.798H153.367Z" fill="#FFD279"/>
<path d="M153.367 172.099H152.416V173.577H153.367H154.318V172.099H153.367Z" fill="#FFD279"/>
<path d="M167.328 177.198L165.353 173.891H158.857L160.342 177.198H167.328Z" fill="#FFD279"/>
<path d="M156.912 177.198L155.735 173.891H152.721L153.906 177.198H156.912Z" fill="#FFD279"/>
<path d="M12.9792 170.775L-3.26804 180.453C-5.79912 181.96 -6.28925 185.822 -4.35071 189.078C-2.41216 192.333 1.20889 193.752 3.73997 192.245L19.9945 182.56C22.5256 181.053 23.0084 177.198 21.0772 173.942C19.1459 170.687 15.5176 169.268 12.9792 170.775Z" fill="#0B3A6B"/>
<path d="M21.7934 180.475L1.02535 192.801C-0.503447 192.616 -1.92306 191.914 -2.99805 190.811L21.9616 175.976C22.4201 177.451 22.3607 179.038 21.7934 180.475Z" fill="#082952"/>
<path d="M17.0306 170.489L-5.44922 183.876C-5.36032 183.179 -5.11727 182.509 -4.73769 181.917C-4.35812 181.325 -3.85152 180.825 -3.25464 180.453L12.9926 170.775C13.603 170.432 14.2816 170.229 14.9797 170.18C15.6777 170.131 16.3781 170.236 17.0306 170.489Z" fill="#247AAE"/>
<path d="M12.9286 170.307C14.1063 169.612 13.0675 170.226 10.1195 171.982C7.43479 173.584 6.9154 177.681 8.97099 181.133C11.0266 184.586 14.8744 186.1 17.5664 184.498L20.3755 182.83C23.0675 181.228 23.5796 177.132 21.524 173.672C19.4684 170.212 15.6571 168.712 12.9286 170.307Z" fill="#247AAE"/>
<path d="M19.7446 171.514L7.92315 178.544C7.85731 178.251 7.80611 177.951 7.76953 177.666L19.0424 170.958C19.2862 171.13 19.5206 171.316 19.7446 171.514Z" fill="#44ACD5"/>
<path d="M22.7831 178.104C22.8017 179.352 22.431 180.574 21.7224 181.601L15.8701 185.091C14.6305 185.229 13.3788 184.973 12.293 184.359L22.7831 178.104Z" fill="#0B3A6B"/>
<path d="M12.5986 170.504L10.1187 171.967C9.43333 172.404 8.86163 172.997 8.45077 173.698C8.03992 174.398 7.80172 175.187 7.75586 175.998L10.2284 174.535C10.278 173.724 10.5185 172.936 10.9304 172.236C11.3423 171.535 11.9139 170.942 12.5986 170.504Z" fill="#44ACD5"/>
<path d="M11.4555 179.634C9.39992 176.181 9.91197 172.084 12.604 170.482C12.4138 170.592 10.6142 171.667 10.4899 171.733C7.80518 173.335 7.29312 177.432 9.34871 180.892C11.4043 184.352 15.2521 185.852 17.9368 184.257L20.0436 182.999C17.3589 184.623 13.5111 183.116 11.4555 179.634Z" fill="#FCAB26"/>
<path d="M8.14258 177.439L10.2494 176.188C10.2853 176.484 10.339 176.777 10.4103 177.066L8.29619 178.317C8.23279 178.024 8.18159 177.732 8.14258 177.439Z" fill="#FFD279"/>
<path d="M11.4437 183.342C11.1081 183.071 10.7927 182.775 10.5 182.457L12.6068 181.199C12.8976 181.518 13.2131 181.814 13.5505 182.084L11.4437 183.342Z" fill="#FC9700"/>
<path d="M8.09241 176.649L10.1992 175.391C10.1304 174.436 10.3171 173.48 10.74 172.621C11.163 171.763 11.807 171.032 12.6059 170.504L10.5357 171.733C9.72936 172.263 9.07819 172.997 8.64887 173.861C8.21955 174.724 8.02752 175.687 8.09241 176.649Z" fill="#FFD279"/>
<path d="M21.5092 173.672C23.5647 177.132 23.0527 181.228 20.3606 182.83C17.6686 184.432 13.8281 182.925 11.7725 179.465C9.71695 176.005 10.229 171.909 12.9137 170.307C15.5984 168.705 19.4682 170.219 21.5092 173.672Z" fill="#44ACD5"/>
<path d="M14.7474 182.882C15.8334 183.495 17.085 183.751 18.3246 183.613L16.2178 184.871C14.9782 185.009 13.7266 184.753 12.6406 184.14L14.7474 182.882Z" fill="#FC9700"/>
<path d="M24.6843 163.811L13.4188 170.511C10.8877 172.018 10.4049 175.881 12.3434 179.136C14.282 182.391 17.903 183.811 20.4341 182.304L31.6996 175.603C34.2307 174.096 34.7135 170.233 32.7749 166.978C30.8364 163.723 27.2153 162.304 24.6843 163.811Z" fill="#0B3A6B"/>
<path d="M33.4919 173.511L17.7348 182.882C16.2081 182.697 14.7908 181.995 13.7188 180.892L33.6601 169.027C34.1205 170.496 34.0611 172.08 33.4919 173.511Z" fill="#082952"/>
<path d="M28.7345 163.54L11.2656 173.935C11.3565 173.238 11.6004 172.569 11.9798 171.978C12.3592 171.386 12.8647 170.885 13.4602 170.511L24.7257 163.811C25.3335 163.475 26.0074 163.277 26.7001 163.23C27.3927 163.184 28.0871 163.289 28.7345 163.54Z" fill="#247AAE"/>
<path d="M27.1554 161.85L24.3463 163.54C21.6543 165.142 21.1422 169.238 23.1978 172.699C25.2534 176.159 29.1012 177.658 31.7932 176.056L34.6023 174.388C37.287 172.786 37.8064 168.69 35.7508 165.23C33.6952 161.77 29.8474 160.248 27.1554 161.85Z" fill="#247AAE"/>
<path d="M33.9438 163.05L22.1224 170.08C22.059 169.787 22.0078 169.495 21.9688 169.202L33.2416 162.494C33.5122 162.669 33.7463 162.852 33.9438 163.05Z" fill="#44ACD5"/>
<path d="M37.0091 169.641C37.0291 170.89 36.6554 172.113 35.9411 173.138L30.0889 176.635C28.8493 176.773 27.5976 176.517 26.5117 175.903L37.0091 169.641Z" fill="#0B3A6B"/>
<path d="M26.8266 162.077L24.3467 163.54C23.6632 163.979 23.0926 164.572 22.6809 165.273C22.2691 165.973 22.0279 166.76 21.9766 167.571L24.4564 166.108C24.5031 165.296 24.7424 164.507 25.1546 163.806C25.5667 163.105 26.1399 162.512 26.8266 162.077Z" fill="#44ACD5"/>
<path d="M25.6852 171.199C23.6296 167.739 24.1417 163.642 26.8264 162.04L24.7196 163.299C22.0349 164.893 21.5155 168.997 23.5784 172.45C25.6413 175.903 29.4745 177.417 32.1665 175.815L34.2733 174.564C31.5886 176.159 27.7408 174.652 25.6852 171.199Z" fill="#FCAB26"/>
<path d="M22.373 168.975L24.4798 167.724C24.514 168.017 24.5652 168.31 24.6335 168.602L22.5267 169.861C22.4608 169.561 22.4096 169.268 22.373 168.975Z" fill="#FFD279"/>
<path d="M25.6697 174.878C25.3318 174.607 25.0139 174.311 24.7188 173.993L26.8328 172.742C27.1274 173.058 27.4427 173.354 27.7765 173.628L25.6697 174.878Z" fill="#FC9700"/>
<path d="M22.3141 168.185L24.4282 166.934C24.3573 165.979 24.5422 165.022 24.9639 164.162C25.3856 163.302 26.0289 162.569 26.8276 162.04L24.7574 163.277C23.9532 163.807 23.3036 164.54 22.8745 165.402C22.4454 166.264 22.252 167.224 22.3141 168.185Z" fill="#FFD279"/>
<path d="M35.7503 165.208C37.8059 168.668 37.2865 172.764 34.6018 174.366C31.9171 175.968 28.062 174.462 26.0064 171.001C23.9508 167.541 24.4629 163.445 27.1549 161.85C29.8469 160.255 33.6947 161.755 35.7503 165.208Z" fill="#44ACD5"/>
<path d="M28.9759 174.418C30.062 175.031 31.3135 175.287 32.5531 175.149L30.4463 176.4C29.2068 176.535 27.9562 176.279 26.8691 175.669L28.9759 174.418Z" fill="#FC9700"/>
<path d="M38.8903 155.361L27.6248 162.077C25.0864 163.584 24.6036 167.446 26.5421 170.702C28.4807 173.957 32.1017 175.376 34.6328 173.869L45.8983 167.168C48.4294 165.661 48.9122 161.799 46.981 158.544C45.0497 155.288 41.4214 153.862 38.8903 155.361Z" fill="#0B3A6B"/>
<path d="M47.6984 165.062L31.9414 174.433C30.4126 174.248 28.993 173.545 27.918 172.443L47.8447 160.614C48.3 162.071 48.2484 163.638 47.6984 165.062Z" fill="#082952"/>
<path d="M42.9337 155.083L25.4355 165.486C25.5264 164.789 25.7703 164.12 26.1497 163.528C26.5291 162.936 27.0346 162.436 27.6301 162.062L38.8956 155.361C39.5068 155.021 40.1856 154.819 40.8836 154.771C41.5816 154.723 42.2816 154.83 42.9337 155.083Z" fill="#247AAE"/>
<path d="M81.4944 135.405H89.4315C97.0247 135.405 103.184 143.32 103.184 153.086C103.184 162.852 97.0247 170.767 89.4315 170.767H81.4944C73.8938 170.767 67.7344 162.852 67.7344 153.086C67.7344 143.32 73.8719 135.405 81.4944 135.405Z" fill="#247AAE"/>
<path d="M95.1231 146.371H102.138C101.917 145.682 101.659 145.006 101.363 144.345H94.3477C94.6432 145.006 94.9021 145.682 95.1231 146.371Z" fill="#44ACD5"/>
<path d="M70.5859 163.899C72.0984 166.533 74.4019 168.624 77.1697 169.875H93.7607C96.5298 168.626 98.8339 166.534 100.344 163.899H70.5859Z" fill="#0B3A6B"/>
<path d="M82.4082 135.405H89.4089C93.3153 135.405 96.8485 137.505 99.3504 140.87H92.3496C89.8478 137.505 86.3219 135.405 82.4082 135.405Z" fill="#44ACD5"/>
<path d="M96.1238 153.086C96.1238 143.32 89.9643 135.405 82.3711 135.405H88.3257C95.9263 135.405 102.086 143.32 102.086 153.086C102.086 162.852 95.9263 170.767 88.3257 170.767H82.3711C89.9863 170.767 96.1238 162.852 96.1238 153.086Z" fill="#FCAB26"/>
<path d="M100.31 144.345H94.3477C94.6432 145.006 94.9021 145.682 95.1231 146.371H101.078C100.856 145.683 100.6 145.007 100.31 144.345Z" fill="#FFD279"/>
<path d="M100.746 160.753C101.113 159.769 101.406 158.759 101.623 157.732H95.6615C95.4466 158.759 95.1557 159.769 94.791 160.753H100.746Z" fill="#FC9700"/>
<path d="M99.4371 142.618H93.4752C90.9734 138.229 86.9427 135.405 82.3926 135.405H88.2448C92.7949 135.405 96.9353 138.244 99.4371 142.618Z" fill="#FFD279"/>
<path d="M81.4729 170.767C89.0724 170.767 95.2329 162.851 95.2329 153.086C95.2329 143.321 89.0724 135.405 81.4729 135.405C73.8735 135.405 67.7129 143.321 67.7129 153.086C67.7129 162.851 73.8735 170.767 81.4729 170.767Z" fill="#44ACD5"/>
<path d="M77.1933 138.668H80.6827C86.8714 138.668 91.8897 145.113 91.8897 153.065C91.8897 161.016 86.8714 167.468 80.6827 167.468H77.1933C71.0046 167.468 65.9863 161.016 65.9863 153.065C65.9863 145.113 71.0046 138.668 77.1933 138.668Z" fill="#0B3A6B"/>
<path d="M71.7066 165.647H86.1689C88.7292 163.67 90.5361 160.877 91.2896 157.732H66.5859C67.3394 160.877 69.1464 163.67 71.7066 165.647Z" fill="#082952"/>
<path d="M47.3889 135.405H75.7795C83.3727 135.405 89.5321 143.32 89.5321 153.086C89.5321 162.852 83.3727 170.767 75.7795 170.767H47.3889C39.7884 170.767 33.6289 162.852 33.6289 153.086C33.6289 143.32 39.7957 135.405 47.3889 135.405Z" fill="#247AAE"/>
<path d="M45.7939 160.753H88.1785C88.5422 159.768 88.8356 158.758 89.0563 157.732H44.916C45.1333 158.759 45.4267 159.769 45.7939 160.753Z" fill="#0B3A6B"/>
<path d="M47.3164 163.899C48.8309 166.531 51.1338 168.622 53.9001 169.875H80.1034C82.8726 168.626 85.1766 166.534 86.6872 163.899H47.3164Z" fill="#0B3A6B"/>
<path d="M47.7324 135.405H75.2086C79.1222 135.405 82.6482 137.505 85.15 140.87H57.6739C55.1574 137.505 51.6388 135.405 47.7324 135.405Z" fill="#44ACD5"/>
<path d="M47.3889 170.767C54.9884 170.767 61.1489 162.851 61.1489 153.086C61.1489 143.321 54.9884 135.405 47.3889 135.405C39.7895 135.405 33.6289 143.321 33.6289 153.086C33.6289 162.851 39.7895 170.767 47.3889 170.767Z" fill="#44ACD5"/>
<path d="M43.1249 138.668H46.6143C52.803 138.668 57.8213 145.113 57.8213 153.065C57.8213 161.016 52.803 167.468 46.6143 167.468H43.1249C36.9362 167.468 31.918 161.016 31.918 153.065C31.918 145.113 36.9362 138.668 43.1249 138.668Z" fill="#0B3A6B"/>
<path d="M37.6363 165.647H52.0986C54.6588 163.67 56.4658 160.877 57.2193 157.732H32.5156C33.2691 160.877 35.0761 163.67 37.6363 165.647Z" fill="#082952"/>
<path d="M33.6511 135.405H41.5882C49.1888 135.405 55.3482 143.32 55.3482 153.086C55.3482 162.852 49.1888 170.767 41.5882 170.767H33.6511C26.0579 170.767 19.8984 162.852 19.8984 153.086C19.8984 143.32 26.0579 135.405 33.6511 135.405Z" fill="#247AAE"/>
<path d="M20.9238 146.371H54.318C54.1027 145.681 53.8462 145.004 53.5499 144.345H21.6992C21.4037 145.006 21.1448 145.682 20.9238 146.371Z" fill="#44ACD5"/>
<path d="M22.7734 163.899C24.284 166.534 26.588 168.626 29.3572 169.875H45.9482C48.7159 168.624 51.0194 166.533 52.5319 163.899H22.7734Z" fill="#0B3A6B"/>
<path d="M34.5957 135.405H41.5891C45.5028 135.405 49.0287 137.505 51.5378 140.87H44.5371C42.028 137.505 38.5021 135.405 34.5957 135.405Z" fill="#44ACD5"/>
<path d="M48.3337 153.086C48.3337 143.32 42.1743 135.405 34.5737 135.405H40.5283C48.1216 135.405 54.281 143.32 54.281 153.086C54.281 162.852 48.1216 170.767 40.5283 170.767H34.5664C42.1743 170.767 48.3337 162.852 48.3337 153.086Z" fill="#FCAB26"/>
<path d="M52.4878 144.345H46.5332C46.8263 145.006 47.0828 145.682 47.3013 146.371H53.2633C53.0422 145.682 52.7834 145.006 52.4878 144.345Z" fill="#FFD279"/>
<path d="M52.9639 160.753C53.3285 159.769 53.6195 158.759 53.8344 157.732H47.8432C47.6283 158.759 47.3373 159.769 46.9727 160.753H52.9639Z" fill="#FC9700"/>
<path d="M51.6232 142.618H45.6466C43.1448 138.229 39.1067 135.405 34.5566 135.405H40.4089C44.9809 135.405 49.114 138.244 51.6232 142.618Z" fill="#FFD279"/>
<path d="M33.6506 170.767C41.2501 170.767 47.4106 162.851 47.4106 153.086C47.4106 143.321 41.2501 135.405 33.6506 135.405C26.0512 135.405 19.8906 143.321 19.8906 153.086C19.8906 162.851 26.0512 170.767 33.6506 170.767Z" fill="#44ACD5"/>
<path d="M32.5161 167.49C38.7015 167.49 43.7157 161.042 43.7157 153.087C43.7157 145.132 38.7015 138.683 32.5161 138.683C26.3307 138.683 21.3164 145.132 21.3164 153.087C21.3164 161.042 26.3307 167.49 32.5161 167.49Z" fill="#247AAE"/>
<path d="M93.2732 163.899C91.7627 166.534 89.4586 168.626 86.6895 169.875H92.6441C95.4132 168.626 97.7173 166.534 99.2278 163.899H93.2732Z" fill="#FC9700"/>
<path d="M45.4568 163.899C43.9443 166.533 41.6408 168.624 38.873 169.875H44.8277C47.5968 168.626 49.9009 166.534 51.4114 163.899H45.4568Z" fill="#FC9700"/>
<path d="M87.1337 144.345H61.1426C61.4381 145.006 61.697 145.682 61.918 146.371H87.9091C87.6881 145.682 87.4292 145.006 87.1337 144.345Z" fill="#44ACD5"/>
<path d="M75.7811 135.405H72.9062C80.4995 135.405 86.6589 143.32 86.6589 153.086C86.6589 162.852 80.4995 170.767 72.9062 170.767H75.7811C83.3744 170.767 89.5338 162.852 89.5338 153.086C89.5338 143.32 83.3744 135.405 75.7811 135.405Z" fill="#FCAB26"/>
<path d="M50.2655 135.405H47.3906C54.9839 135.405 61.1433 143.32 61.1433 153.086C61.1433 162.852 54.9839 170.767 47.3906 170.767H50.2655C57.8661 170.767 64.0255 162.852 64.0255 153.086C64.0255 143.32 57.8661 135.405 50.2655 135.405Z" fill="#FCAB26"/>
<path d="M107.879 170.782H77.6229H47.3597L40.8125 175.237H77.6229H114.433L107.879 170.782Z" fill="#247AAE"/>
<path d="M91.7342 170.782L95.2675 175.237H90.754L87.2207 170.782H91.7342Z" fill="#44ACD5"/>
<path d="M106.153 170.782L112.093 175.237H100.856L96.416 170.782H106.153Z" fill="#44ACD5"/>
<path d="M61.7773 175.237L63.7964 171.39H67.6661L66.0202 175.237H61.7773Z" fill="#0B3A6B"/>
<path d="M46.4745 171.39H62.751L60.1321 175.237H40.8125L46.4745 171.39Z" fill="#0B3A6B"/>
<path d="M107.879 170.782H77.623H47.3598L44.0898 173.006H77.623H111.156L107.879 170.782Z" fill="#FCAB26"/>
<path d="M77.623 175.237H36.877V192.838H77.623H118.362V175.237H77.623Z" fill="#247AAE"/>
<path d="M94.6036 179.356H92.2773V192.838H94.6036H96.9299V179.356H94.6036Z" fill="#44ACD5"/>
<path d="M63.8 175.237H61.5762V192.838H63.8H66.0239V175.237H63.8Z" fill="#0B3A6B"/>
<path d="M50.1639 175.237H40.4199V192.838H50.1639H59.9078V175.237H50.1639Z" fill="#0B3A6B"/>
<path d="M107.601 179.356H100.146V192.838H107.601H115.062V179.356H107.601Z" fill="#44ACD5"/>
<path d="M77.6253 175.237H36.3965V178.712H77.6253H118.847V175.237H77.6253Z" fill="#FCAB26"/>
<path d="M108.297 175.237H100.857V178.105H108.297H115.729V175.237H108.297Z" fill="#FFD279"/>
<path d="M77.6253 189.363H36.3965V192.838H77.6253H118.847V189.363H77.6253Z" fill="#FCAB26"/>
<path d="M50.1618 175.932H40.3008V178.712H50.1618H60.0227V175.932H50.1618Z" fill="#FC9700"/>
<path d="M50.1618 189.977H40.3008V192.838H50.1618H60.0227V189.977H50.1618Z" fill="#FC9700"/>
<path d="M63.798 175.932H61.5449V178.712H63.798H66.0511V175.932H63.798Z" fill="#FC9700"/>
<path d="M63.798 189.977H61.5449V192.838H63.798H66.0511V189.977H63.798Z" fill="#FC9700"/>
<path d="M44.0898 173.006H61.6465L62.7511 171.39H46.4746L44.0898 173.006Z" fill="#FC9700"/>
<path d="M62.9492 173.006H66.9726L67.6676 171.39H63.7978L62.9492 173.006Z" fill="#FC9700"/>
<path d="M108.297 189.363H100.857V192.23H108.297H115.729V189.363H108.297Z" fill="#FFD279"/>
<path d="M94.815 175.237H92.4961V178.105H94.815H97.1413V175.237H94.815Z" fill="#FFD279"/>
<path d="M94.815 189.363H92.4961V192.23H94.815H97.1413V189.363H94.815Z" fill="#FFD279"/>
<path d="M109.123 173.006L106.153 170.782H96.416L98.6399 173.006H109.123Z" fill="#FFD279"/>
<path d="M93.5045 173.006L91.7342 170.782H87.2207L88.991 173.006H93.5045Z" fill="#FFD279"/>
<path d="M147.891 140.482C173.092 140.482 162.676 192.253 135.719 192.823H180.247C207.204 192.253 217.628 140.482 192.419 140.482H147.891Z" fill="#E2F7F3"/>
<path d="M136.655 192.801C149.618 191.945 158.601 179.187 161.359 166.466C167.619 165.551 173.985 165.617 180.225 166.664C194.255 168.858 201.132 167.615 205.879 166.4C203.07 179.421 193.721 192.538 180.247 192.801H135.719C136.033 192.801 136.355 192.801 136.655 192.801Z" fill="white"/>
<path d="M194.054 151.104C187.302 150.526 173.103 150.556 161.201 150.716C159.365 144.689 155.078 140.475 147.895 140.475H192.401C201.618 140.475 206.066 147.403 206.687 156.21C203.138 153.189 198.706 151.398 194.054 151.104Z" fill="#CEEAE4"/>
<path d="M196.161 142.619H160.396V143.313H196.161V142.619Z" fill="#A5D6CA"/>
<path d="M199.553 145.486H163.789V146.181H199.553V145.486Z" fill="#A5D6CA"/>
<path d="M202.313 148.353H166.549V149.048H202.313V148.353Z" fill="#A5D6CA"/>
<path d="M202.758 151.689H166.994V152.384H202.758V151.689Z" fill="#A5D6CA"/>
<path d="M203.081 155.479H167.316V156.174H203.081V155.479Z" fill="#A5D6CA"/>
<path d="M202.313 159.268H166.549V159.963H202.313V159.268Z" fill="#A5D6CA"/>
<path d="M202.313 163.065H166.549V163.76H202.313V163.065Z" fill="#A5D6CA"/>
<path d="M202.057 166.854H166.293V167.549H202.057V166.854Z" fill="#A5D6CA"/>
<path d="M200.549 170.643H164.785V171.338H200.549V170.643Z" fill="#A5D6CA"/>
<path d="M198.727 174.432H162.963V175.127H198.727V174.432Z" fill="#A5D6CA"/>
<path d="M196.161 178.229H160.396V178.924H196.161V178.229Z" fill="#A5D6CA"/>
<path d="M194.235 181.543H158.471V182.238H194.235V181.543Z" fill="#A5D6CA"/>
<path d="M192.7 184.154H156.936V184.849H192.7V184.154Z" fill="#A5D6CA"/>
<path d="M190.776 185.778H155.012V186.473H190.776V185.778Z" fill="#A5D6CA"/>
<path d="M189.518 187.403H153.754V188.098H189.518V187.403Z" fill="#A5D6CA"/>
<path d="M185.518 189.143H149.754V189.838H185.518V189.143Z" fill="#A5D6CA"/>
<path d="M180.249 192.801C160.848 193.218 155.457 182.143 137.82 182.143H93.2773C110.922 182.143 116.313 193.218 135.706 192.801H180.249Z" fill="#E2F7F3"/>
<path d="M178.273 192.801H180.249C179.566 192.831 178.907 192.831 178.273 192.801Z" fill="#CEEAE4"/>
<path d="M153.753 185.603H109.247C104.225 183.345 98.7832 182.173 93.2773 182.165H137.82C143.313 182.178 148.742 183.35 153.753 185.603Z" fill="#CEEAE4"/>
<path d="M166.563 190.936C170.35 192.136 174.294 192.771 178.267 192.823H135.722C131.093 192.964 126.474 192.326 122.057 190.936H166.563Z" fill="#CEEAE4"/>
<path d="M110.498 192.421C110.498 192.421 117.967 182.18 137.784 182.18H93.2781C73.4537 182.18 65.9922 192.421 65.9922 192.421H110.498Z" fill="white"/>
<path d="M142.423 161.719C137.756 161.719 133.316 156.934 133.535 151.075C133.828 143.328 141.655 140.482 147.895 140.482H192.401C186.161 140.482 178.334 143.328 178.041 151.075C177.822 156.927 182.269 161.719 186.937 161.719H142.423Z" fill="white"/>
<path d="M121.75 182.706H90.7402V183.401H121.75V182.706Z" fill="#A5D6CA"/>
<path d="M115.304 184.791H84.2949V185.486H115.304V184.791Z" fill="#A5D6CA"/>
<path d="M110.931 187.154H79.9219V187.849H110.931V187.154Z" fill="#A5D6CA"/>
<path d="M223.621 135.164C228.068 123.657 231.587 114.681 234.125 110.117C234.125 110.117 227.359 113.218 212.341 139.151L214.242 146.547L213.913 147.403L211.88 139.956C210.27 142.75 208.573 145.808 206.759 149.129C204.001 154.25 208.8 162.516 208.8 162.516C208.8 162.516 214.747 157.9 216.013 154.689C216.371 153.789 216.744 152.896 217.074 152.004L211.631 153.087L212.436 151.104L217.922 149.934C219.334 146.313 221.58 140.475 222.853 137.198L217.425 138.661L217.71 137.052L223.621 135.164Z" fill="#FFD279"/>
<path d="M206.357 166.722C207.696 161.711 209.284 156.832 211.076 151.996C212.868 147.161 214.814 142.406 216.965 137.739C219.126 133.071 221.521 128.515 224.141 124.089C226.773 119.677 229.693 115.445 232.883 111.419C229.816 115.525 227.025 119.831 224.529 124.308C222.048 128.786 219.799 133.388 217.791 138.097C215.787 142.808 213.97 147.588 212.341 152.435C210.732 157.278 209.269 162.201 208.098 167.132L206.357 166.722Z" fill="#0B3A6B"/>
<path d="M216.85 165.501H200.303V171.353H216.85V165.501Z" fill="#247AAE"/>
<path d="M204.099 165.501H200.303V171.353H204.099V165.501Z" fill="#0B3A6B"/>
<path d="M216.849 165.501H213.053V171.353H216.849V165.501Z" fill="#44ACD5"/>
<path d="M216.85 165.501H200.303V167.132H216.85V165.501Z" fill="#0B3A6B"/>
<path d="M221.492 171.36H195.662C195.265 171.359 194.873 171.436 194.506 171.587C194.14 171.738 193.807 171.96 193.526 172.24C193.245 172.52 193.023 172.853 192.871 173.219C192.719 173.585 192.641 173.977 192.641 174.374V191.082C192.643 191.548 192.829 191.995 193.16 192.324C193.49 192.653 193.937 192.838 194.404 192.838H222.75C223.215 192.836 223.661 192.65 223.99 192.321C224.318 191.992 224.504 191.547 224.506 191.082V174.374C224.506 173.575 224.188 172.808 223.623 172.243C223.058 171.678 222.291 171.36 221.492 171.36Z" fill="#247AAE"/>
<path d="M199.846 191.082V174.374C199.845 173.978 199.923 173.585 200.074 173.219C200.225 172.853 200.447 172.521 200.727 172.241C201.007 171.961 201.339 171.739 201.706 171.587C202.072 171.436 202.464 171.359 202.86 171.36H195.662C195.265 171.359 194.873 171.436 194.506 171.587C194.14 171.738 193.807 171.96 193.526 172.24C193.245 172.52 193.023 172.853 192.871 173.219C192.719 173.585 192.641 173.977 192.641 174.374V191.082C192.643 191.548 192.829 191.995 193.16 192.324C193.49 192.653 193.937 192.838 194.404 192.838H201.602C201.136 192.838 200.69 192.653 200.36 192.323C200.031 191.994 199.846 191.548 199.846 191.082Z" fill="#0B3A6B"/>
<path d="M221.492 171.36H195.662C195.265 171.359 194.873 171.436 194.506 171.587C194.14 171.738 193.807 171.96 193.526 172.24C193.245 172.52 193.023 172.853 192.871 173.219C192.719 173.585 192.641 173.977 192.641 174.374V174.513C193.144 174.171 193.737 173.988 194.345 173.986H220.175C220.975 173.986 221.741 174.304 222.306 174.869C222.872 175.434 223.189 176.201 223.189 177V192.801C223.564 192.704 223.897 192.486 224.135 192.18C224.373 191.875 224.504 191.499 224.506 191.111V174.374C224.506 173.575 224.188 172.808 223.623 172.243C223.058 171.678 222.291 171.36 221.492 171.36Z" fill="#44ACD5"/>
<path d="M218.048 160.745H199.108C198.74 160.726 198.371 160.782 198.025 160.91C197.678 161.038 197.361 161.235 197.094 161.49C196.826 161.744 196.613 162.05 196.467 162.389C196.321 162.728 196.246 163.094 196.246 163.463C196.246 163.832 196.321 164.198 196.467 164.537C196.613 164.876 196.826 165.182 197.094 165.436C197.361 165.691 197.678 165.888 198.025 166.016C198.371 166.144 198.74 166.2 199.108 166.181H218.048C218.744 166.144 219.4 165.842 219.88 165.337C220.36 164.831 220.628 164.16 220.628 163.463C220.628 162.766 220.36 162.095 219.88 161.589C219.4 161.084 218.744 160.781 218.048 160.745Z" fill="#247AAE"/>
<path d="M218.047 160.745H199.108C198.471 160.746 197.854 160.97 197.366 161.38C196.878 161.789 196.549 162.357 196.438 162.984C196.947 162.507 197.62 162.246 198.318 162.252H217.257C217.977 162.252 218.668 162.538 219.178 163.047C219.689 163.556 219.976 164.246 219.978 164.966C219.976 165.126 219.959 165.285 219.927 165.442C220.316 165.066 220.584 164.584 220.697 164.055C220.81 163.526 220.762 162.976 220.56 162.475C220.358 161.973 220.011 161.543 219.563 161.241C219.115 160.938 218.587 160.775 218.047 160.775V160.745Z" fill="#44ACD5"/>
<path d="M219.657 190.606H195.173C195.013 190.58 194.851 190.589 194.695 190.632C194.54 190.675 194.396 190.752 194.273 190.856C194.15 190.961 194.051 191.091 193.984 191.237C193.916 191.383 193.881 191.542 193.881 191.704C193.881 191.865 193.916 192.024 193.984 192.171C194.051 192.317 194.15 192.447 194.273 192.551C194.396 192.656 194.54 192.732 194.695 192.775C194.851 192.818 195.013 192.827 195.173 192.801H219.657C219.917 192.758 220.154 192.625 220.324 192.424C220.495 192.223 220.589 191.967 220.589 191.704C220.589 191.44 220.495 191.185 220.324 190.984C220.154 190.783 219.917 190.649 219.657 190.606Z" fill="#0B3A6B"/>
<path d="M213.264 164.63H198.714C198.595 164.63 198.482 164.677 198.398 164.761C198.315 164.844 198.268 164.958 198.268 165.076C198.268 165.195 198.315 165.308 198.398 165.392C198.482 165.475 198.595 165.522 198.714 165.522H213.264C213.382 165.522 213.496 165.475 213.579 165.392C213.663 165.308 213.71 165.195 213.71 165.076C213.71 164.958 213.663 164.844 213.579 164.761C213.496 164.677 213.382 164.63 213.264 164.63Z" fill="#0B3A6B"/>
<path d="M208.574 175.244C206.703 175.304 204.93 176.089 203.628 177.433C202.326 178.777 201.598 180.575 201.598 182.446C201.598 184.317 202.326 186.115 203.628 187.459C204.93 188.804 206.703 189.588 208.574 189.648C209.539 189.679 210.5 189.515 211.401 189.167C212.301 188.819 213.123 188.294 213.816 187.622C214.51 186.95 215.061 186.146 215.438 185.257C215.815 184.367 216.009 183.412 216.009 182.446C216.009 181.481 215.815 180.525 215.438 179.636C215.061 178.747 214.51 177.942 213.816 177.271C213.123 176.599 212.301 176.073 211.401 175.725C210.5 175.377 209.539 175.213 208.574 175.244Z" fill="#FCAB26"/>
</svg>
