<svg width="24" height="25" viewBox="0 0 24 25" fill="none" xmlns="http://www.w3.org/2000/svg">
<g id="Podilaw mag 4" clip-path="url(#clip0_128_1348)">
<g id="Layer 2">
<g id="Layer 1">
<path id="Vector" d="M22.7891 12.0993L21.4366 7.22362C21.6639 7.1028 21.8594 6.92704 22.0065 6.71134C22.1536 6.49563 22.248 6.24639 22.2815 5.98489C22.3151 5.72339 22.2868 5.4574 22.1991 5.20962C22.1114 4.96185 21.9669 4.73965 21.778 4.56199C21.5891 4.38434 21.3613 4.2565 21.114 4.1894C20.8668 4.12229 20.6076 4.11792 20.3584 4.17664C20.1092 4.23537 19.8775 4.35545 19.683 4.52664C19.4885 4.69782 19.3371 4.91503 19.2416 5.15971H12.6386V3.12748C12.9703 2.97529 13.2413 2.71015 13.4063 2.37644C13.5712 2.04272 13.6201 1.66067 13.5447 1.29422C13.4693 0.927765 13.2742 0.599148 12.9922 0.363355C12.7101 0.127563 12.3581 -0.00109863 11.995 -0.00109863C11.632 -0.00109863 11.28 0.127563 10.9979 0.363355C10.7159 0.599148 10.5208 0.927765 10.4454 1.29422C10.37 1.66067 10.4189 2.04272 10.5838 2.37644C10.7488 2.71015 11.0198 2.97529 11.3515 3.12748V5.15971H4.75842C4.66196 4.9121 4.50823 4.69263 4.31064 4.52045C4.11306 4.34827 3.87764 4.22863 3.62493 4.17197C3.37222 4.11531 3.10991 4.12335 2.86091 4.1954C2.61191 4.26744 2.38378 4.4013 2.19646 4.58528C2.00913 4.76926 1.8683 4.99777 1.78626 5.25085C1.70421 5.50393 1.68346 5.77389 1.7258 6.03716C1.76815 6.30042 1.8723 6.54899 2.02917 6.76115C2.18605 6.97331 2.39086 7.14261 2.62574 7.25427L1.28119 12.0993H0V12.7124C0.0149674 13.6028 0.368235 14.4515 0.983712 15.0757C1.59919 15.7 2.42763 16.0497 3.29059 16.0497C4.15356 16.0497 4.982 15.7 5.59748 15.0757C6.21295 14.4515 6.56622 13.6028 6.58119 12.7124V12.0993H5.3703L4.01782 7.22362C4.35317 7.04383 4.61566 6.74688 4.75842 6.3858H9.59406V21.58H8.5901V22.8061H15.4V21.58H14.395V6.3858H19.2465C19.3988 6.76922 19.6855 7.07932 20.0495 7.25427L18.705 12.0993H17.4188V12.7124C17.4338 13.6028 17.787 14.4515 18.4025 15.0757C19.018 15.7 19.8464 16.0497 20.7094 16.0497C21.5724 16.0497 22.4008 15.7 23.0163 15.0757C23.6318 14.4515 23.985 13.6028 24 12.7124V12.0993H22.7891ZM3.29109 5.36406C3.36942 5.36406 3.44599 5.38803 3.51112 5.43294C3.57625 5.47785 3.62701 5.54167 3.65698 5.61635C3.68696 5.69103 3.6948 5.77321 3.67952 5.85249C3.66424 5.93177 3.62652 6.00459 3.57113 6.06175C3.51574 6.1189 3.44518 6.15783 3.36835 6.1736C3.29153 6.18937 3.2119 6.18127 3.13953 6.15034C3.06716 6.11941 3.00531 6.06702 2.96179 5.99981C2.91828 5.9326 2.89505 5.85359 2.89505 5.77275C2.89505 5.66436 2.93677 5.56041 3.01105 5.48376C3.08532 5.40712 3.18605 5.36406 3.29109 5.36406ZM3.29109 14.8815C2.8372 14.8811 2.39559 14.7293 2.03201 14.4489C1.66843 14.1686 1.40231 13.7745 1.27327 13.3254H5.30792C5.17907 13.7744 4.91313 14.1684 4.54972 14.4488C4.1863 14.7292 3.74485 14.881 3.29109 14.8815ZM4.13465 12.0993H2.51683L3.32574 9.18433L4.13465 12.0993ZM11.995 1.22603C12.0734 1.22603 12.1499 1.25 12.2151 1.2949C12.2802 1.33981 12.331 1.40364 12.3609 1.47832C12.3909 1.553 12.3988 1.63517 12.3835 1.71445C12.3682 1.79373 12.3305 1.86655 12.2751 1.92371C12.2197 1.98087 12.1491 2.01979 12.0723 2.03556C11.9955 2.05133 11.9159 2.04324 11.8435 2.01231C11.7711 1.98137 11.7093 1.92899 11.6658 1.86178C11.6222 1.79457 11.599 1.71555 11.599 1.63472C11.599 1.52633 11.6407 1.42238 11.715 1.34573C11.7893 1.26909 11.89 1.22603 11.995 1.22603ZM13.2069 21.58H10.7822V6.3858H13.2069V21.58ZM20.7099 5.36406C20.7882 5.36406 20.8648 5.38803 20.9299 5.43294C20.9951 5.47785 21.0458 5.54167 21.0758 5.61635C21.1058 5.69103 21.1136 5.77321 21.0983 5.85249C21.083 5.93177 21.0453 6.00459 20.9899 6.06175C20.9346 6.1189 20.864 6.15783 20.7872 6.1736C20.7103 6.18937 20.6307 6.18127 20.5583 6.15034C20.486 6.11941 20.4241 6.06702 20.3806 5.99981C20.3371 5.9326 20.3139 5.85359 20.3139 5.77275C20.3139 5.66436 20.3556 5.56041 20.4299 5.48376C20.5041 5.40712 20.6049 5.36406 20.7099 5.36406ZM20.7446 9.18433L21.5535 12.0993H19.9356L20.7446 9.18433ZM20.7099 14.8815C20.256 14.8811 19.8144 14.7293 19.4508 14.4489C19.0872 14.1686 18.8211 13.7745 18.6921 13.3254H22.7267C22.5979 13.7744 22.3319 14.1684 21.9685 14.4488C21.6051 14.7292 21.1637 14.881 20.7099 14.8815Z" fill="url(#paint0_linear_128_1348)"/>
<path id="Vector_2" d="M16.1574 23.734H7.8317V24.9601H16.1574V23.734Z" fill="url(#paint1_linear_128_1348)"/>
</g>
</g>
</g>
<defs>
<linearGradient id="paint0_linear_128_1348" x1="12" y1="-0.00109863" x2="12" y2="22.8061" gradientUnits="userSpaceOnUse">
<stop stop-color="#C4C4C4"/>
<stop offset="0.640625" stop-color="#FBFDFF"/>
</linearGradient>
<linearGradient id="paint1_linear_128_1348" x1="11.9946" y1="23.734" x2="11.9946" y2="24.9601" gradientUnits="userSpaceOnUse">
<stop stop-color="#C4C4C4"/>
<stop offset="0.640625" stop-color="#FBFDFF"/>
</linearGradient>
<clipPath id="clip0_128_1348">
<rect width="24" height="24.96" fill="white"/>
</clipPath>
</defs>
</svg>
