<svg width="32" height="32" viewBox="0 0 32 32" fill="none" xmlns="http://www.w3.org/2000/svg">
<path d="M25.4942 12.1601C24.9742 12.1601 24.5609 12.5734 24.5609 13.0934V15.2001C24.5609 19.9201 20.7209 23.7601 16.0009 23.7601C11.2809 23.7601 7.44089 19.9201 7.44089 15.2001V13.0801C7.44089 12.5601 7.02755 12.1467 6.50755 12.1467C5.98755 12.1467 5.57422 12.5601 5.57422 13.0801V15.1867C5.57422 20.6134 9.74755 25.0801 15.0676 25.5601V28.4001C15.0676 28.9201 15.4809 29.3334 16.0009 29.3334C16.5209 29.3334 16.9342 28.9201 16.9342 28.4001V25.5601C22.2409 25.0934 26.4276 20.6134 26.4276 15.1867V13.0801C26.4142 12.5734 26.0009 12.1601 25.4942 12.1601Z" fill="url(#paint0_linear_264_17629)"/>
<path d="M16.0008 2.66675C12.7474 2.66675 10.1074 5.30675 10.1074 8.56008V15.3867C10.1074 18.6401 12.7474 21.2801 16.0008 21.2801C19.2541 21.2801 21.8941 18.6401 21.8941 15.3867V8.56008C21.8941 5.30675 19.2541 2.66675 16.0008 2.66675ZM17.7474 11.9334C17.6541 12.2801 17.3474 12.5067 17.0008 12.5067C16.9341 12.5067 16.8674 12.4934 16.8008 12.4801C16.2808 12.3334 15.7341 12.3334 15.2141 12.4801C14.7874 12.6001 14.3741 12.3467 14.2674 11.9334C14.1474 11.5201 14.4008 11.0934 14.8141 10.9867C15.6008 10.7734 16.4274 10.7734 17.2141 10.9867C17.6141 11.0934 17.8541 11.5201 17.7474 11.9334ZM18.4541 9.34675C18.3341 9.66675 18.0408 9.85341 17.7208 9.85341C17.6274 9.85341 17.5474 9.84008 17.4541 9.81341C16.5208 9.46675 15.4808 9.46675 14.5474 9.81341C14.1474 9.96008 13.6941 9.74675 13.5474 9.34675C13.4008 8.94675 13.6141 8.49341 14.0141 8.36008C15.2941 7.89341 16.7074 7.89341 17.9874 8.36008C18.3874 8.50675 18.6008 8.94675 18.4541 9.34675Z" fill="url(#paint1_linear_264_17629)"/>
<defs>
<linearGradient id="paint0_linear_264_17629" x1="-4.85245" y1="20.7401" x2="12.0178" y2="41.2095" gradientUnits="userSpaceOnUse">
<stop stop-color="#01DCBA"/>
<stop offset="1" stop-color="#7F30CB"/>
</linearGradient>
<linearGradient id="paint1_linear_264_17629" x1="4.21409" y1="11.9734" x2="21.0403" y2="22.6284" gradientUnits="userSpaceOnUse">
<stop stop-color="#01DCBA"/>
<stop offset="1" stop-color="#7F30CB"/>
</linearGradient>
</defs>
</svg>
