<svg width="32" height="32" viewBox="0 0 32 32" fill="none" xmlns="http://www.w3.org/2000/svg">
<path d="M27.9593 13.8267V18.08C27.9593 21.1733 25.4527 23.68 22.3594 23.68H17.6127C16.8793 23.68 16.2793 24.2667 16.2793 25.0133V26.1067C16.2793 26.84 16.8793 27.44 17.6127 27.44H20.626C21.146 27.44 21.5727 27.8533 21.5727 28.3867C21.5727 28.9067 21.146 29.3333 20.626 29.3333H10.0393C9.51935 29.3333 9.09268 28.9067 9.09268 28.3867C9.09268 27.8533 9.51935 27.44 10.0393 27.44H13.0527C13.786 27.44 14.386 26.84 14.386 26.1067V25.0133C14.386 24.2667 13.786 23.68 13.0527 23.68H8.25268C5.17268 23.68 2.66602 21.1733 2.66602 18.08V9.58667C2.66602 6.50667 5.17268 4 8.25268 4H13.9993C14.7327 4 15.3327 4.6 15.3327 5.33333V8.2C15.3327 10.7733 17.0527 12.4933 19.6127 12.4933H26.626C27.3593 12.4933 27.9593 13.0933 27.9593 13.8267Z" fill="url(#paint0_linear_264_17633)"/>
<path d="M29.3207 3.14665L27.814 4.19998V3.63998C27.814 2.37331 26.7873 1.35998 25.534 1.35998H19.8273C18.454 1.34665 17.334 2.46665 17.334 3.83998V8.21331C17.334 9.35998 17.9073 10.4933 19.614 10.4933H25.5206C26.7873 10.4933 27.8007 9.46665 27.8007 8.21331V7.63998L29.3073 8.69331C30.0673 9.21331 30.6673 8.89331 30.6673 7.98665V3.85331C30.6673 2.94665 30.0673 2.63998 29.3207 3.14665Z" fill="url(#paint1_linear_264_17633)"/>
<defs>
<linearGradient id="paint0_linear_264_17633" x1="-9.98065" y1="16.6667" x2="15.3527" y2="41.96" gradientUnits="userSpaceOnUse">
<stop stop-color="#01DCBA"/>
<stop offset="1" stop-color="#7F30CB"/>
</linearGradient>
<linearGradient id="paint1_linear_264_17633" x1="10.6673" y1="5.92659" x2="19.184" y2="18.3595" gradientUnits="userSpaceOnUse">
<stop stop-color="#01DCBA"/>
<stop offset="1" stop-color="#7F30CB"/>
</linearGradient>
</defs>
</svg>
