<svg width="32" height="34" viewBox="0 0 32 34" fill="none" xmlns="http://www.w3.org/2000/svg">
<g clip-path="url(#clip0_128_1336)">
<path d="M30.3855 16.1323L28.5822 9.63137C28.8851 9.47028 29.1458 9.23593 29.342 8.94833C29.5382 8.66072 29.664 8.3284 29.7087 7.97973C29.7534 7.63106 29.7157 7.27641 29.5988 6.94604C29.4819 6.61567 29.2893 6.31941 29.0373 6.08253C28.7854 5.84566 28.4817 5.67521 28.1521 5.58574C27.8225 5.49627 27.4768 5.49044 27.1445 5.56874C26.8122 5.64704 26.5033 5.80714 26.244 6.03539C25.9847 6.26364 25.7828 6.55325 25.6554 6.87949H16.8515V4.16985C17.2938 3.96693 17.6551 3.61342 17.875 3.16846C18.0949 2.7235 18.1601 2.2141 18.0596 1.7255C17.9591 1.2369 17.699 0.798742 17.3229 0.484352C16.9468 0.169962 16.4774 -0.00158691 15.9934 -0.00158691C15.5094 -0.00158691 15.04 0.169962 14.6639 0.484352C14.2878 0.798742 14.0277 1.2369 13.9272 1.7255C13.8267 2.2141 13.8919 2.7235 14.1118 3.16846C14.3317 3.61342 14.693 3.96693 15.1353 4.16985V6.87949H6.34455C6.21594 6.54935 6.01097 6.25672 5.74752 6.02715C5.48408 5.79758 5.17018 5.63805 4.83324 5.5625C4.49629 5.48696 4.14655 5.49768 3.81455 5.59374C3.48254 5.6898 3.17838 5.86828 2.92861 6.11358C2.67884 6.35889 2.49106 6.66357 2.38167 7.00101C2.27228 7.33845 2.24461 7.6984 2.30107 8.04942C2.35753 8.40044 2.4964 8.73186 2.70557 9.01474C2.91473 9.29762 3.18782 9.52336 3.50099 9.67224L1.70825 16.1323H0V16.9497C0.0199565 18.1369 0.49098 19.2686 1.31162 20.1009C2.13225 20.9331 3.23684 21.3995 4.38746 21.3995C5.53808 21.3995 6.64266 20.9331 7.4633 20.1009C8.28394 19.2686 8.75496 18.1369 8.77492 16.9497V16.1323H7.1604L5.3571 9.63137C5.80422 9.39165 6.15421 8.99571 6.34455 8.51427H12.7921V28.7733H11.4535V30.408H20.5333V28.7733H19.1934V8.51427H25.662C25.8651 9.0255 26.2474 9.43897 26.7327 9.67224L24.9399 16.1323H23.2251V16.9497C23.245 18.1369 23.7161 19.2686 24.5367 20.1009C25.3573 20.9331 26.4619 21.3995 27.6125 21.3995C28.7632 21.3995 29.8677 20.9331 30.6884 20.1009C31.509 19.2686 31.98 18.1369 32 16.9497V16.1323H30.3855ZM4.38812 7.15196C4.49256 7.15196 4.59465 7.18392 4.68149 7.24379C4.76833 7.30367 4.83601 7.38878 4.87598 7.48835C4.91594 7.58792 4.9264 7.69749 4.90603 7.80319C4.88565 7.9089 4.83536 8.00599 4.76151 8.0822C4.68766 8.15841 4.59357 8.21031 4.49114 8.23134C4.3887 8.25236 4.28253 8.24157 4.18604 8.20033C4.08955 8.15908 4.00708 8.08924 3.94906 7.99963C3.89104 7.91002 3.86007 7.80466 3.86007 7.69688C3.86007 7.55236 3.9157 7.41376 4.01473 7.31156C4.11376 7.20937 4.24807 7.15196 4.38812 7.15196ZM4.38812 19.8419C3.78293 19.8413 3.19413 19.639 2.70935 19.2651C2.22457 18.8913 1.86975 18.3659 1.69769 17.7671H7.07723C6.90542 18.3658 6.55084 18.8911 6.06629 19.265C5.58174 19.6389 4.99313 19.8412 4.38812 19.8419ZM5.51287 16.1323H3.35578L4.43432 12.2457L5.51287 16.1323ZM15.9934 1.63458C16.0978 1.63458 16.1999 1.66654 16.2868 1.72642C16.3736 1.78629 16.4413 1.8714 16.4813 1.97097C16.5212 2.07054 16.5317 2.18011 16.5113 2.28582C16.4909 2.39152 16.4406 2.48862 16.3668 2.56483C16.2929 2.64104 16.1988 2.69294 16.0964 2.71396C15.994 2.73499 15.8878 2.7242 15.7913 2.68295C15.6948 2.64171 15.6124 2.57186 15.5543 2.48225C15.4963 2.39264 15.4653 2.28728 15.4653 2.17951C15.4653 2.03498 15.521 1.89638 15.62 1.79419C15.719 1.69199 15.8534 1.63458 15.9934 1.63458ZM17.6092 28.7733H14.3762V8.51427H17.6092V28.7733ZM27.6132 7.15196C27.7176 7.15196 27.8197 7.18392 27.9066 7.24379C27.9934 7.30367 28.0611 7.38878 28.1011 7.48835C28.141 7.58792 28.1515 7.69749 28.1311 7.80319C28.1107 7.9089 28.0604 8.00599 27.9866 8.0822C27.9127 8.15841 27.8187 8.21031 27.7162 8.23134C27.6138 8.25236 27.5076 8.24157 27.4111 8.20033C27.3146 8.15908 27.2322 8.08924 27.1741 7.99963C27.1161 7.91002 27.0851 7.80466 27.0851 7.69688C27.0851 7.55236 27.1408 7.41376 27.2398 7.31156C27.3388 7.20937 27.4732 7.15196 27.6132 7.15196ZM27.6594 12.2457L28.738 16.1323H26.5809L27.6594 12.2457ZM27.6132 19.8419C27.008 19.8413 26.4192 19.639 25.9344 19.2651C25.4497 18.8913 25.0948 18.3659 24.9228 17.7671H30.3023C30.1305 18.3658 29.7759 18.8911 29.2914 19.265C28.8068 19.6389 28.2182 19.8412 27.6132 19.8419Z" fill="url(#paint0_linear_128_1336)"/>
<path d="M21.5433 31.6451H10.4423V33.2799H21.5433V31.6451Z" fill="url(#paint1_linear_128_1336)"/>
</g>
<defs>
<linearGradient id="paint0_linear_128_1336" x1="16" y1="-0.00158691" x2="16" y2="30.408" gradientUnits="userSpaceOnUse">
<stop stop-color="#105363"/>
<stop offset="1" stop-color="#27849A"/>
</linearGradient>
<linearGradient id="paint1_linear_128_1336" x1="15.9928" y1="31.6451" x2="15.9928" y2="33.2799" gradientUnits="userSpaceOnUse">
<stop stop-color="#105363"/>
<stop offset="1" stop-color="#27849A"/>
</linearGradient>
<clipPath id="clip0_128_1336">
<rect width="32" height="33.28" fill="white"/>
</clipPath>
</defs>
</svg>
