<svg width="61" height="20" viewBox="0 0 61 20" fill="none" xmlns="http://www.w3.org/2000/svg">
<path d="M11.0909 1.4L12.3455 2.65455L9.34545 5.8L11.0182 6.87273C11.3212 7.06667 11.5939 7.26667 11.8364 7.47273C12.0788 7.66667 12.2788 7.89091 12.4364 8.14545C12.6061 8.38788 12.7333 8.66061 12.8182 8.96364C12.903 9.25455 12.9455 9.6 12.9455 10C12.9697 10.3515 13.0909 10.6364 13.3091 10.8545C13.5273 11.0727 13.7939 11.1818 14.1091 11.1818H14.4C14.6788 11.1818 14.903 11.2606 15.0727 11.4182C15.2424 11.5758 15.3273 11.7939 15.3273 12.0727C15.3273 12.3636 15.2424 12.5939 15.0727 12.7636C14.9152 12.9212 14.6909 13 14.4 13H14.1091C13.297 13 12.6061 12.7273 12.0364 12.1818C11.7697 12.4485 11.4545 12.6545 11.0909 12.8C10.7394 12.9333 10.3818 13 10.0182 13H4.49091C3.9697 13 3.47879 12.903 3.01818 12.7091C2.55758 12.5152 2.15758 12.2485 1.81818 11.9091C1.47879 11.5697 1.21212 11.1697 1.01818 10.7091C0.824242 10.2485 0.727273 9.75758 0.727273 9.23636V7.03636H2.54545V9.23636C2.54545 9.50303 2.59394 9.75758 2.69091 10C2.8 10.2303 2.93939 10.4364 3.10909 10.6182C3.29091 10.7879 3.49697 10.9273 3.72727 11.0364C3.9697 11.1333 4.22424 11.1818 4.49091 11.1818H10.0182C10.0788 11.1818 10.1697 11.1636 10.2909 11.1273C10.4242 11.0788 10.5576 11.0121 10.6909 10.9273C10.8242 10.8303 10.9394 10.7091 11.0364 10.5636C11.1333 10.4182 11.1818 10.2364 11.1818 10.0182C11.1818 9.59394 11.0848 9.28485 10.8909 9.09091C10.697 8.88485 10.4424 8.67879 10.1273 8.47273L7.27273 6.6V5.21818L11.0909 1.4ZM6.92727 4.47273L5.89091 3.34545L8.85455 0.436364L9.89091 1.49091L6.92727 4.47273ZM19.2673 13C18.843 13 18.437 12.9212 18.0491 12.7636C17.6612 12.5939 17.3157 12.3576 17.0127 12.0545C16.7218 12.3576 16.3885 12.5939 16.0127 12.7636C15.6491 12.9212 15.2673 13 14.8673 13H14.3945C14.1036 13 13.8794 12.9212 13.7218 12.7636C13.5521 12.5939 13.4673 12.3636 13.4673 12.0727C13.4673 11.7939 13.5521 11.5758 13.7218 11.4182C13.8915 11.2606 14.1157 11.1818 14.3945 11.1818H14.8673C15.146 11.1818 15.4067 11.0788 15.6491 10.8727C15.9036 10.6545 16.0309 10.3697 16.0309 10.0182V8.29091H15.0673V6.50909H19.2673C19.7279 6.50909 20.1521 6.59394 20.54 6.76364C20.94 6.93333 21.2854 7.16364 21.5763 7.45455C21.8673 7.74545 22.0976 8.09091 22.2673 8.49091C22.437 8.87879 22.5218 9.30303 22.5218 9.76364C22.5218 10.2121 22.437 10.6364 22.2673 11.0364C22.0976 11.4242 21.8612 11.7636 21.5582 12.0545C21.2673 12.3455 20.9218 12.5758 20.5218 12.7455C20.1339 12.9152 19.7157 13 19.2673 13ZM17.7945 8.29091V9.76364C17.7945 9.95758 17.8309 10.1455 17.9036 10.3273C17.9885 10.497 18.0976 10.6485 18.2309 10.7818C18.3642 10.9152 18.5218 11.0242 18.7036 11.1091C18.8854 11.1818 19.0733 11.2182 19.2673 11.2182C19.4733 11.2182 19.6612 11.1818 19.8309 11.1091C20.0127 11.0242 20.1703 10.9152 20.3036 10.7818C20.437 10.6485 20.54 10.497 20.6127 10.3273C20.6976 10.1455 20.74 9.95758 20.74 9.76364C20.74 9.35152 20.5945 9.00606 20.3036 8.72727C20.0248 8.43636 19.6794 8.29091 19.2673 8.29091H17.7945ZM26.8543 8.27273C26.6603 8.27273 26.4724 8.31515 26.2906 8.4C26.1209 8.47273 25.9694 8.57576 25.8361 8.70909C25.7027 8.84242 25.5937 9 25.5088 9.18182C25.4361 9.35152 25.3997 9.53939 25.3997 9.74545C25.3997 10.1455 25.5391 10.4848 25.8179 10.7636C26.1088 11.0424 26.4543 11.1818 26.8543 11.1818H28.327V9.74545C28.327 9.34545 28.1815 9 27.8906 8.70909C27.5997 8.41818 27.2543 8.27273 26.8543 8.27273ZM28.2543 13.4C28.2664 13.3394 28.2785 13.2848 28.2906 13.2364C28.2906 13.2 28.2906 13.1576 28.2906 13.1091C28.3027 13.0606 28.3088 13.0242 28.3088 13H26.8543C26.4058 13 25.9815 12.9152 25.5815 12.7455C25.1937 12.5758 24.8543 12.3455 24.5634 12.0545C24.2724 11.7515 24.0421 11.4061 23.8724 11.0182C23.7027 10.6182 23.6179 10.1939 23.6179 9.74545C23.6179 9.30909 23.7027 8.89091 23.8724 8.49091C24.0421 8.09091 24.2724 7.73939 24.5634 7.43636C24.8543 7.13333 25.1937 6.89697 25.5815 6.72727C25.9815 6.54545 26.4058 6.45455 26.8543 6.45455C27.3149 6.45455 27.7391 6.53939 28.127 6.70909C28.527 6.87879 28.8724 7.11515 29.1634 7.41818C29.4543 7.72121 29.6846 8.07273 29.8543 8.47273C30.024 8.86061 30.1088 9.28485 30.1088 9.74545V11.1818H30.9815C31.2724 11.1818 31.4967 11.2606 31.6543 11.4182C31.824 11.5758 31.9088 11.7939 31.9088 12.0727C31.9088 12.3636 31.824 12.5939 31.6543 12.7636C31.4967 12.9212 31.2724 13 30.9815 13H30.1088C30.0361 14.2606 29.5573 15.2727 28.6724 16.0364C28.4906 16.1939 28.2846 16.3333 28.0543 16.4545C27.8361 16.5758 27.6058 16.6848 27.3634 16.7818C27.133 16.8788 26.8967 16.9636 26.6543 17.0364C26.4118 17.1091 26.1876 17.1758 25.9815 17.2364C25.9209 17.2606 25.8543 17.2788 25.7815 17.2909C25.7209 17.303 25.6603 17.3212 25.5997 17.3455L25.2543 17.4545L24.7634 15.8909L25.1088 15.7636C25.1694 15.7394 25.2361 15.7152 25.3088 15.6909C25.3815 15.6667 25.4543 15.6424 25.527 15.6182C25.8664 15.497 26.2118 15.3697 26.5634 15.2364C26.927 15.103 27.23 14.9333 27.4724 14.7273C27.7512 14.5091 27.9391 14.2727 28.0361 14.0182C28.1452 13.7636 28.2179 13.5576 28.2543 13.4ZM35.9388 13H35.6116C35.1873 13 34.8116 12.9273 34.4843 12.7818C34.157 12.6364 33.8419 12.4242 33.5388 12.1455C32.9692 12.7152 32.2782 13 31.4661 13H30.957C30.6661 13 30.4419 12.9212 30.2843 12.7636C30.1146 12.5939 30.0298 12.3636 30.0298 12.0727C30.0298 11.8061 30.1146 11.5879 30.2843 11.4182C30.4661 11.2606 30.6904 11.1818 30.957 11.1818H31.4661C31.7934 11.1818 32.0661 11.0606 32.2843 10.8182C32.5146 10.5636 32.6298 10.2788 32.6298 9.96364V2.27273H34.4479V9.96364C34.4479 10.2909 34.5631 10.5758 34.7934 10.8182C35.0237 11.0606 35.2964 11.1818 35.6116 11.1818H35.9388C36.2055 11.1818 36.4298 11.2606 36.6116 11.4182C36.7813 11.5879 36.8661 11.8061 36.8661 12.0727C36.8661 12.3636 36.7813 12.5939 36.6116 12.7636C36.454 12.9212 36.2298 13 35.9388 13ZM38.5193 13H35.9557C35.6648 13 35.4345 12.9152 35.2648 12.7455C35.0951 12.5879 35.0102 12.3636 35.0102 12.0727C35.0102 11.7939 35.0951 11.5758 35.2648 11.4182C35.4345 11.2606 35.6648 11.1818 35.9557 11.1818H38.5193C38.6769 11.1818 38.8223 11.1515 38.9557 11.0909C39.1011 11.0182 39.2284 10.9273 39.3375 10.8182C39.4466 10.697 39.5314 10.5636 39.592 10.4182C39.6527 10.2727 39.683 10.1212 39.683 9.96364V7.07273H41.5011V10.0182C41.5011 10.4182 41.4223 10.8 41.2648 11.1636C41.1072 11.5152 40.889 11.8303 40.6102 12.1091C40.3436 12.3758 40.0284 12.5939 39.6648 12.7636C39.3011 12.9212 38.9193 13 38.5193 13ZM35.9375 15.1091H37.6284V16.8364H35.9375V15.1091ZM38.7557 15.1091H40.4466V16.8364H38.7557V15.1091ZM47.1 13H43.1364V11.1818H47.1C47.4152 11.1818 47.6879 11.0727 47.9182 10.8545C48.1485 10.6364 48.2636 10.3758 48.2636 10.0727C48.2636 9.85455 48.2152 9.66061 48.1182 9.49091C48.0333 9.30909 47.9121 9.1697 47.7545 9.07273L44.5182 6.83636L45.4636 5.36364C45.5 5.38788 45.603 5.46061 45.7727 5.58182C45.9424 5.69091 46.1364 5.82424 46.3545 5.98182C46.5848 6.12727 46.8333 6.29091 47.1 6.47273C47.3667 6.64242 47.6152 6.81212 47.8455 6.98182C48.0879 7.13939 48.2939 7.27879 48.4636 7.4C48.6455 7.52121 48.7667 7.60606 48.8273 7.65455C49.2152 7.92121 49.5121 8.26667 49.7182 8.69091C49.9364 9.10303 50.0455 9.56364 50.0455 10.0727C50.0455 10.4727 49.9667 10.8485 49.8091 11.2C49.6515 11.5515 49.4333 11.8606 49.1545 12.1273C48.8879 12.3939 48.5788 12.6061 48.2273 12.7636C47.8758 12.9212 47.5 13 47.1 13ZM55.2836 13H54.3927C53.9806 13 53.5927 12.9212 53.229 12.7636C52.8654 12.6061 52.5503 12.3939 52.2836 12.1273C52.0169 11.8606 51.8048 11.5455 51.6472 11.1818C51.4897 10.8182 51.4109 10.4303 51.4109 10.0182V2.27273H53.1927V10.0364C53.1927 10.3515 53.3078 10.6242 53.5381 10.8545C53.7684 11.0727 54.0533 11.1818 54.3927 11.1818H55.2836C55.5624 11.1818 55.7866 11.2606 55.9563 11.4182C56.126 11.5758 56.2109 11.7939 56.2109 12.0727C56.2109 12.3636 56.126 12.5939 55.9563 12.7636C55.7987 12.9212 55.5745 13 55.2836 13ZM57.2202 13H55.293C55.0021 13 54.7718 12.9152 54.6021 12.7455C54.4324 12.5879 54.3475 12.3636 54.3475 12.0727C54.3475 11.7939 54.4324 11.5758 54.6021 11.4182C54.7718 11.2606 55.0021 11.1818 55.293 11.1818H57.2202C57.3778 11.1818 57.5233 11.1515 57.6566 11.0909C57.8021 11.0182 57.9293 10.9273 58.0384 10.8182C58.1475 10.697 58.2324 10.5636 58.293 10.4182C58.3536 10.2727 58.3839 10.1212 58.3839 9.96364V7.07273H60.2021V10.0182C60.2021 10.4182 60.1233 10.8 59.9657 11.1636C59.8081 11.5152 59.5899 11.8303 59.3112 12.1091C59.0445 12.3758 58.7293 12.5939 58.3657 12.7636C58.0021 12.9212 57.6202 13 57.2202 13ZM56.7112 17.9091H58.3839V19.6182H56.7112V17.9091ZM55.293 15.1091H56.9839V16.8364H55.293V15.1091ZM58.1112 15.1091H59.8021V16.8364H58.1112V15.1091Z" fill="#394959"/>
</svg>
