<svg width="24" height="24" viewBox="0 0 24 24" fill="none" xmlns="http://www.w3.org/2000/svg">
<path opacity="0.4" d="M18.1394 21.62C17.2594 21.88 16.2194 22 14.9994 22H8.99937C7.77937 22 6.73937 21.88 5.85938 21.62C6.07937 19.02 8.74937 16.97 11.9994 16.97C15.2494 16.97 17.9194 19.02 18.1394 21.62Z" stroke="url(#paint0_linear_1928_872)" stroke-width="1.5" stroke-linecap="round" stroke-linejoin="round"/>
<path d="M22 9V15C22 18.78 20.86 20.85 18.14 21.62C17.26 21.88 16.22 22 15 22H9C7.78 22 6.74 21.88 5.86 21.62C3.14 20.85 2 18.78 2 15V9C2 4 4 2 9 2H15C20 2 22 4 22 9Z" stroke="url(#paint1_linear_1928_872)" stroke-width="1.5" stroke-linecap="round" stroke-linejoin="round"/>
<path opacity="0.4" d="M15.5799 10.58C15.5799 12.56 13.9799 14.17 11.9999 14.17C10.0199 14.17 8.41992 12.56 8.41992 10.58C8.41992 8.60002 10.0199 7 11.9999 7C13.9799 7 15.5799 8.60002 15.5799 10.58Z" stroke="url(#paint2_linear_1928_872)" stroke-width="1.5" stroke-linecap="round" stroke-linejoin="round"/>
<defs>
<linearGradient id="paint0_linear_1928_872" x1="11.9994" y1="16.97" x2="11.9994" y2="22" gradientUnits="userSpaceOnUse">
<stop stop-color="#105363"/>
<stop offset="1" stop-color="#27849A"/>
</linearGradient>
<linearGradient id="paint1_linear_1928_872" x1="12" y1="2" x2="12" y2="22" gradientUnits="userSpaceOnUse">
<stop stop-color="#105363"/>
<stop offset="1" stop-color="#27849A"/>
</linearGradient>
<linearGradient id="paint2_linear_1928_872" x1="11.9999" y1="7" x2="11.9999" y2="14.17" gradientUnits="userSpaceOnUse">
<stop stop-color="#105363"/>
<stop offset="1" stop-color="#27849A"/>
</linearGradient>
</defs>
</svg>
