<svg width="24" height="24" viewBox="0 0 24 24" fill="none" xmlns="http://www.w3.org/2000/svg">
<path d="M12.95 14.95L14.8 16.8C15.19 17.19 15.81 17.19 16.21 16.81C16.32 16.7 16.43 16.6 16.54 16.49C17.57 15.45 18.5 14.36 19.33 13.22C20.15 12.08 20.81 10.94 21.29 9.81C21.76 8.67 22 7.58 22 6.54C22 5.86 21.88 5.21 21.64 4.61C21.4 4 21.02 3.44 20.49 2.94C19.85 2.31 19.15 2 18.41 2C18.13 2 17.85 2.06 17.6 2.18C17.34 2.3 17.11 2.48 16.93 2.74L14.61 6.01C14.43 6.26 14.3 6.49 14.21 6.71C14.12 6.92 14.07 7.13 14.07 7.32C14.07 7.56 14.14 7.8 14.28 8.03C14.41 8.26 14.6 8.5 14.84 8.74L15.6 9.53C15.71 9.64 15.76 9.77 15.76 9.93C15.76 10.01 15.75 10.08 15.73 10.16C15.7 10.24 15.67 10.3 15.65 10.36C15.47 10.69 15.16 11.12 14.72 11.64C14.27 12.16 13.79 12.69 13.27 13.22C13.17 13.32 13.06 13.42 12.96 13.52C12.56 13.91 12.55 14.55 12.95 14.95Z" fill="#394959"/>
<path d="M2.03039 18.33C2.03039 18.61 2.08039 18.9 2.18039 19.18C2.21039 19.26 2.24039 19.34 2.28039 19.42C2.45039 19.78 2.67039 20.12 2.96039 20.44C3.45039 20.98 3.99039 21.37 4.60039 21.62C4.61039 21.62 4.62039 21.63 4.63039 21.63C5.22039 21.87 5.86039 22 6.55039 22C7.57039 22 8.66039 21.76 9.81039 21.27C10.9604 20.78 12.1104 20.12 13.2504 19.29C13.6404 19 14.0304 18.71 14.4004 18.4L11.1304 15.13C10.8504 15.34 10.6004 15.5 10.3904 15.61C10.3404 15.63 10.2804 15.66 10.2104 15.69C10.1304 15.72 10.0504 15.73 9.96039 15.73C9.79039 15.73 9.66039 15.67 9.55039 15.56L8.79039 14.81C8.54039 14.56 8.30039 14.37 8.07039 14.25C7.84039 14.11 7.61039 14.04 7.36039 14.04C7.17039 14.04 6.97039 14.08 6.75039 14.17C6.53039 14.26 6.30039 14.39 6.05039 14.56L2.74039 16.91C2.48039 17.09 2.30039 17.3 2.19039 17.55C2.09039 17.8 2.03039 18.05 2.03039 18.33Z" fill="#394959"/>
</svg>
