<svg width="32" height="32" viewBox="0 0 32 32" fill="none" xmlns="http://www.w3.org/2000/svg">
<path d="M19.6394 2.66675H12.3594V8.48008H19.6394V2.66675Z" fill="url(#paint0_linear_1984_1986)"/>
<path d="M21.6406 2.66675V8.48008H29.1606C28.4806 4.81341 25.774 2.68008 21.6406 2.66675Z" fill="url(#paint1_linear_1984_1986)"/>
<path d="M2.66602 10.48V21.5866C2.66602 26.44 5.55935 29.3333 10.4127 29.3333H21.586C26.4394 29.3333 29.3327 26.44 29.3327 21.5866V10.48H2.66602ZM19.2527 21.5733L16.4793 23.1733C15.8927 23.5066 15.3193 23.68 14.786 23.68C14.386 23.68 14.026 23.5866 13.6927 23.4C12.9193 22.96 12.4927 22.0533 12.4927 20.88V17.68C12.4927 16.5066 12.9193 15.6 13.6927 15.16C14.466 14.7066 15.4527 14.7866 16.4793 15.3866L19.2527 16.9866C20.2793 17.5733 20.8393 18.4 20.8393 19.2933C20.8393 20.1866 20.266 20.9733 19.2527 21.5733Z" fill="url(#paint2_linear_1984_1986)"/>
<path d="M10.3598 2.66675C6.22651 2.68008 3.51984 4.81341 2.83984 8.48008H10.3598V2.66675Z" fill="url(#paint3_linear_1984_1986)"/>
<defs>
<linearGradient id="paint0_linear_1984_1986" x1="8.71938" y1="5.57341" x2="14.3886" y2="12.673" gradientUnits="userSpaceOnUse">
<stop stop-color="#01DCBA"/>
<stop offset="1" stop-color="#7F30CB"/>
</linearGradient>
<linearGradient id="paint1_linear_1984_1986" x1="17.8806" y1="5.57341" x2="23.5065" y2="12.851" gradientUnits="userSpaceOnUse">
<stop stop-color="#01DCBA"/>
<stop offset="1" stop-color="#7F30CB"/>
</linearGradient>
<linearGradient id="paint2_linear_1984_1986" x1="-10.6673" y1="19.9066" x2="7.10688" y2="45.047" gradientUnits="userSpaceOnUse">
<stop stop-color="#01DCBA"/>
<stop offset="1" stop-color="#7F30CB"/>
</linearGradient>
<linearGradient id="paint3_linear_1984_1986" x1="-0.920156" y1="5.57341" x2="4.70576" y2="12.851" gradientUnits="userSpaceOnUse">
<stop stop-color="#01DCBA"/>
<stop offset="1" stop-color="#7F30CB"/>
</linearGradient>
</defs>
</svg>
